<svg width="199" height="202" viewBox="0 0 199 202" fill="none" xmlns="http://www.w3.org/2000/svg">
<path d="M100.424 201.997C86.9985 202.099 73.6884 199.514 61.2807 194.397C49.2757 189.45 38.3684 182.187 29.1849 173.023C20.0014 163.86 12.7227 152.977 7.76676 141C2.5046 128.329 -0.135424 114.727 0.0053472 101.013C-0.0729752 87.7963 2.33125 74.6821 7.09363 62.3489C11.7038 50.3685 18.6351 39.4119 27.4916 30.1051C36.585 20.595 47.5645 13.079 59.7305 8.0361C73.237 2.52754 87.7214 -0.196337 102.311 0.0285839C117.476 -0.321444 132.543 2.54671 146.514 8.44309C158.392 13.5386 168.961 21.2504 177.427 31.0005C185.359 40.1966 191.288 50.9379 194.836 62.5422C198.362 74.0183 199.667 86.0588 198.681 98.0215C198.544 111.376 193.869 124.289 185.423 134.651C181.902 138.483 177.603 141.524 172.813 143.572C168.023 145.619 162.851 146.626 157.641 146.524C149.819 146.837 142.099 144.667 135.59 140.328C129.773 136.195 125.705 130.052 124.178 123.092L129.277 124.171C126.636 130.054 121.916 134.762 116.019 137.398C110.047 140.221 103.524 141.695 96.9159 141.712C90.2697 141.851 83.7045 140.237 77.8847 137.031C72.5419 133.993 68.1686 129.51 65.2685 124.099C62.172 118.245 60.6173 111.701 60.7504 105.083C60.5857 98.2603 62.1876 91.5107 65.4011 85.4862C68.3899 80.081 72.8573 75.6348 78.2824 72.666C84.0961 69.5869 90.6001 68.0357 97.1811 68.1586C103.372 68.2206 109.492 69.4783 115.203 71.8622C121.396 74.3575 126.429 79.0766 129.308 85.0894L124.208 90.1768V75.1792C124.208 74.0998 124.638 73.0646 125.403 72.3013C126.168 71.5381 127.206 71.1093 128.288 71.1093H130.654C131.736 71.1093 132.774 71.5381 133.539 72.3013C134.304 73.0646 134.734 74.0998 134.734 75.1792V110.974C134.596 117.09 136.493 123.08 140.129 128.006C142.478 130.619 145.418 132.636 148.705 133.889C151.992 135.142 155.53 135.595 159.028 135.21C163.848 135.236 168.56 133.779 172.521 131.039C176.807 127.978 180.209 123.843 182.383 119.053C185.064 113.114 186.577 106.717 186.84 100.209C187.783 87.9274 186.339 75.5797 182.587 63.8445C179.15 53.3596 173.416 43.77 165.8 35.7724C158.133 27.8099 148.805 21.6269 138.477 17.6614C126.926 13.2942 114.652 11.1469 102.301 11.3327C89.1308 11.0731 76.0589 13.6445 63.9733 18.8722C53.2251 23.6108 43.591 30.5428 35.6915 39.2217C28.0614 47.65 22.1081 57.4495 18.1493 68.0976C14.1708 78.7128 12.1361 89.9546 12.1421 101.288C12.071 113.198 14.4379 124.997 19.0978 135.963C23.6392 146.601 30.159 156.285 38.3127 164.503C46.4339 172.704 56.0826 179.243 66.7168 183.754C77.6401 188.404 89.4048 190.766 101.281 190.693C110.521 190.652 119.713 189.358 128.604 186.847C135.737 184.908 142.592 182.066 149.002 178.392C149.476 178.119 150 177.943 150.543 177.876C151.086 177.81 151.638 177.852 152.164 178.002C152.69 178.152 153.181 178.406 153.606 178.75C154.032 179.093 154.384 179.518 154.642 179.999L155.662 181.953C156.144 182.861 156.264 183.918 155.997 184.911C155.73 185.903 155.097 186.759 154.224 187.305C146.604 191.9 138.403 195.459 129.838 197.887C120.273 200.613 110.373 201.997 100.424 201.997ZM97.4667 130.102C100.79 130.256 104.11 129.752 107.236 128.618C110.363 127.485 113.233 125.745 115.682 123.499C118.068 121.028 119.913 118.088 121.098 114.866C122.283 111.645 122.783 108.212 122.566 104.788C122.832 101.265 122.332 97.7263 121.1 94.4142C119.867 91.1022 117.932 88.0948 115.427 85.5981C110.479 81.2549 104.053 78.965 97.4667 79.1982C94.0553 78.9773 90.6345 79.4486 87.4108 80.5835C84.1871 81.7185 81.2275 83.4936 78.7108 85.8016C76.3806 88.3575 74.5922 91.3568 73.453 94.6194C72.3138 97.882 71.8473 101.341 72.0815 104.788C71.8164 108.263 72.3 111.754 73.4998 115.027C74.6995 118.3 76.5876 121.279 79.0372 123.764C84.135 128.162 90.7351 130.432 97.4667 130.102Z" fill="black"/>
</svg>
