<svg width="721" height="515" viewBox="0 0 721 515" fill="none" xmlns="http://www.w3.org/2000/svg">
<path d="M666.5 299L662 328.5L661.5 347L665 389L672.5 419L681 439L694 465.5L697 471L699.5 475.5L704.5 485.5L710 495.5L721 515L0 448V140L9.69149 127.44H84.2766V152.928H104.886V415.65H174.564V88.2276H227.559V58.8184H304.106V90.1882H343.362L372.803 119.597V174.495H470.941V111.755L488.606 92.1488V0H537.676L559.266 23.5274V141.164H590.67V296.053H608.335V199.982L641.702 164.691H677.032L676.5 261.5L666.5 299Z" fill="#92B774"/>
</svg>
