<svg width="50" height="50" viewBox="0 0 50 50" fill="none" xmlns="http://www.w3.org/2000/svg">
<circle cx="25" cy="25" r="25" fill="#E3E4E4"/>
<path d="M8.93225 29.6013V26.1603L6 19.9951H7.47538L9.63063 24.7538L12.1189 19H13.474L10.2816 26.1983V29.6022L8.93225 29.6013ZM17.6226 29.6013H16.4907C16.434 29.4243 16.3953 29.244 16.375 29.0621H16.2918C15.9125 29.44 15.4234 29.6956 14.6649 29.6956C13.4358 29.6956 12.5929 28.9678 12.5929 27.6375C12.5929 26.1875 13.5399 25.2731 15.9599 25.2731H16.1461V24.8716C16.1461 23.9835 15.7668 23.6065 15.0141 23.6065C14.3262 23.6065 13.7422 23.8892 13.2971 24.1964L13.0381 23.2712C13.4358 23.0165 14.2256 22.7338 15.0974 22.7338C16.6283 22.7338 17.4654 23.244 17.4654 24.8861V28.0679C17.4654 28.7141 17.5486 29.2814 17.6145 29.6022L17.6226 29.6013ZM16.153 26.0706H15.9958C14.3273 26.0706 13.9735 26.646 13.9735 27.5197C13.9735 28.299 14.2984 28.8074 14.9783 28.8074C15.4419 28.8074 15.9068 28.5673 16.1473 28.27L16.153 26.0706ZM20.4716 29.6013H19.135V22.809H20.4716V23.4035H20.5549C20.7965 23.1488 21.4475 22.7328 22.2534 22.7328C23.3854 22.7328 23.982 23.2286 23.982 24.2626V29.6013H22.6269V24.3568C22.6269 23.8466 22.339 23.6681 21.821 23.6681C21.2602 23.6681 20.785 24.0079 20.4716 24.3423V29.6013ZM25.3059 26.472C25.3059 23.9563 26.5049 22.7338 28.2335 22.7338C28.6486 22.7338 29.0764 22.8425 29.3354 22.9884V19.9951H30.6721V29.6013H29.6777L29.5702 29.0621H29.4858C29.1123 29.44 28.6313 29.6956 27.9271 29.6956C26.2286 29.6956 25.3059 28.5673 25.3059 26.472ZM29.3366 23.9137C29.0649 23.7007 28.7712 23.592 28.3237 23.592C27.2461 23.592 26.7281 24.8716 26.7281 26.2536C26.7281 27.8405 27.1073 28.8065 28.089 28.8065C28.7585 28.8065 29.1123 28.5519 29.3366 28.2836V23.9137ZM34.8935 29.6956C33.1118 29.6956 32.0087 28.5818 32.0087 26.4992C32.0087 24.3197 32.7799 22.7328 34.616 22.7328C36.0556 22.7328 36.9944 23.5775 36.9944 25.8821V26.4575H33.3997C33.3997 27.9918 33.9489 28.7948 35.0138 28.7948C35.7677 28.7948 36.3215 28.5301 36.6591 28.3416L36.9725 29.1437C36.3813 29.5091 35.6464 29.704 34.8935 29.6956ZM33.4182 25.5939H35.6289C35.6289 24.4375 35.3873 23.5929 34.616 23.5929C33.7974 23.5929 33.5095 24.3858 33.4124 25.5939H33.4182ZM42.8138 22.828L41.2055 25.9999L43 29.6022H41.616L40.2712 26.8073L38.9716 29.6022H37.6523L39.4526 26.0941L37.8212 22.828H39.2121L40.3325 25.2867L41.5119 22.828H42.8138Z" fill="black"/>
</svg>
