<svg xmlns="http://www.w3.org/2000/svg" width="1920.0000000000002" height="1080">
 <rect x="0" y="0" width="100%" height="100%" fill="#000000" opacity="0.85" /><defs>
  <clipPath id="clip0_9_11">
   <rect id="svg_1" fill="white" height="1080" width="1920" />
  </clipPath>
  <clipPath id="clip1_9_11">
   <rect id="svg_2" x="1210" y="695" fill="white" height="30" width="30" />
  </clipPath>
  <linearGradient y2="1" x2="0.5" y1="0" x1="0.5" id="paint0_linear_9_11">
   <stop stop-color="#b8bf94" offset="0.605" />
   <stop stop-color="#a3ae81" offset="0.79" />
   <stop stop-color="#7c9057" offset="1" />
  </linearGradient>
  <linearGradient y2="1" x2="0.5" y1="0" x1="0.5" id="paint1_linear_9_11">
   <stop stop-color="#95a970" offset="0.205" />
   <stop stop-color="#7c9057" offset="0.605" />
   <stop stop-opacity="0.79" stop-color="#39431c" offset="1" />
  </linearGradient>
  <linearGradient y2="1" x2="0.5" y1="0" x1="0.5" id="paint2_linear_9_11">
   <stop stop-color="#babf91" offset="0.115" />
   <stop stop-color="#a3ae81" offset="0.495" />
   <stop stop-color="#7c9057" offset="0.855" />
  </linearGradient>
  <linearGradient y2="1" x2="0.5" y1="0" x1="0.5" id="paint3_linear_9_11">
   <stop stop-color="#94a96f" />
   <stop stop-color="#92a76d" offset="0.24" />
   <stop stop-color="#6a8044" offset="0.485" />
   <stop stop-color="#38431b" offset="0.855" />
  </linearGradient>
 </defs>
 <g>
  <title>background</title>
  <rect fill="none" id="canvas_background" height="402" width="582" y="-1" x="-1" />
 </g>
 <g>
  <title>Layer 1</title>
  <rect x="9.523457" y="-3.571296" id="svg_4" fill="#aabcae" height="1080" width="1920" />
  <path id="svg_5" fill="#5c7a45" d="m1645.023438,980.428711l91,-88.5l0,85c0,0.799988 -60.670044,2.666992 -91,3.5z" />
  <path id="svg_6" fill="#5c7a45" d="m273.523468,989.928711l-120.000015,-102.5l-14,97.5l134.000015,5z" />
  <path stroke="null" id="svg_7" fill="white" d="m189.97998,118.885231c0,-16.569 13.431,-30 30,-30l1460,0c16.569946,0 30,13.431 30,30l0,820.000023c0,16.56897 -13.430054,30 -30,30l-1460,0c-16.569,0 -30,-13.43103 -30,-30l0,-820.000023z" />
  <path id="svg_8" fill-opacity="0.43" fill="#40b9c1" d="m945.630432,882.966736c-9.35498,45.104004 -39.643982,86.461975 -118.606995,86.461975l-606.499985,0c-16.569,0 -30,-13.43103 -30,-30l0,-1l0,-819.000008c0,-16.569 13.431,-30 30,-30l0.5,0l605.999985,0c7.5,0.166702 69,19 99.5,110.500008c11.176025,33.528 35,111 -21,224.5c-18.075989,36.635986 -102.241028,161.755005 -29.361023,285.679016c32.715027,55.627014 82.574036,109.669983 69.468018,172.859009z" />
  <path id="svg_9" fill="#a9ab98" d="m190.523453,698.428711l720.999985,67l2.5,4l2.5,4l1,1.5l1.5,2.5l0.5,1l1.5,2.5l1.5,2.5l2,3.5l1,2l1.5,2.5l1,2l1,2l1.5,3l1.5,3l1.5,3l2.5,6l2,4.5l2,5.5l1.5,4l1.5,5l1.5,6l1,4l1.5,10l0.5,6l0.5,6.5l0,1.463989c0,2.35498 -0.166992,4.705994 -0.5,7.036011l-0.5,4l-1,7l-1,5l-1,4l-1.5,5l-1,3l-1,3l-1.5,4l-2.5,5.5l-2,4.5l-1,2l-1,2l-0.5,1l-0.5,1l-0.5,1l-1.5,2.5l-1.5,2.5l-2,3l-2.5,3l-3,3l-3,3l-3,3l-4,3.5l-3.5,2.5l-3.5,2l-4,2.5l-5,2.5l-6.5,3.5l-4.5,2l-3,1l-4,1.5l-4,1.5l-3.5,1.5l-10,3l-12,0l-5.5,0l-6.5,0l-613.999985,0l-0.5,0c-16.569,0 -30,-13.43103 -30,-30l0,-2l0,-239z" />
  <path id="svg_10" fill="#aab569" d="m734.023438,639.428711l-538.499985,23l-5,-133.5l39.332993,-0.531982l0,-289.99501l12.993011,-16.246002l0,-43.865005l27.610016,0l2.436005,-56.862007l2.436981,56.862007l27.609009,0l0,43.865005l53.582001,62.272995l0,199.290985l53.609985,0l0,-120.221985l73.897003,-43.86499l0,142.154999l25.174011,0l0,-70.766998l57.81897,0l0,-154.244003l16.078003,0l51.971985,-51.988007l51.971008,51.988007l10.557007,0l0,326.550003l64.965027,0l0,-188.457001l48.722961,0l0,-16.246002l16.241028,0l0,-12.997009l38.979004,0l0,12.997009l12.992981,0l0,19.496002l30.857971,29.242981l3.163025,0.06601l-3.5,8l-2,4l-2,4.5l-3,6.5l-2.5,5l-2,4.5l-2.5,5l-1.5,3.5l-1.5,3l-1.5,3.5l-1.5,3.5l-2.5,5l-2,5l-2,5l-5,11l-6,13.5l-6,15l-132.5,126.5z" />
  <path id="svg_11" fill="#6a8f38" d="m857.023438,549.428711l-4.5,29.5l-0.5,18.5l3.5,42l7.5,30l8.5,20l13,26.5l3,5.5l2.5,4.5l5,10l5.5,10l11,19.5l-720.999985,-67l0,-308l9.690994,-12.559998l74.586029,0l0,25.488007l20.608978,0l0,262.722015l69.678009,0l0,-327.422028l52.994995,0l0,-29.410004l76.546997,0l0,31.369995l39.255981,0l29.440979,29.408997l0,54.89801l98.138,0l0,-62.73999l17.665039,-19.606018l0,-92.148987l49.070007,0l21.589966,23.527008l0,117.636993l31.403992,0l0,154.888977l17.665039,0l0,-96.070984l33.367004,-35.290985l35.329956,0l-0.531982,96.80899l-10,37.5z" />
  <path id="svg_12" fill="#002300" d="m911.523438,765.428711l-720.999985,-67l0,-187l71.805008,0l0,-14.674011l19.759003,0l0,24.744995l24.697998,0l0,-9.89801l14.820007,0l0,107.827026l14.819,0l0,-162.266998l86.445007,-39.592987l1.653992,175.359985l25.514008,0l0,-54.106995l25.93399,0l0,-12.372986l35.812988,0l0,12.372986l24.697968,0l0,123.72699l19.759033,0l0,-185.591003l24.698975,-24.744995l0,-71.761993l24.697998,0c8.64502,-8.248016 25.934021,-24.993011 25.934021,-25.983002c0,-0.989014 17.289001,16.910004 25.932983,25.983002l19.759033,0c-0.412048,22.270996 -0.988037,66.812988 0,66.812988c0.987976,0 15.230957,14.847015 22.228943,22.270996l0,118.777985l12.348999,0l0,-155.895966l64.216003,66.811981l0,195.489014l14.820007,0l0,-64.338013l9.879028,0l0,-12.372986l22.229004,0l0,-14.846985l29.036987,0l0,122.768982l38,0l5,9.5l5.5,10l11,20z" />
  <path id="svg_13" fill="#a9ab98" d="m868.729431,608.682739c-0.33197,-0.009033 -0.646973,-0.150024 -0.875977,-0.391052c-0.229004,-0.240967 -0.35199,-0.563965 -0.343018,-0.895996c0.008972,-0.333008 0.148987,-0.64801 0.390991,-0.876953c0.241028,-0.228027 0.564026,-0.352051 0.895996,-0.343018c1.356018,-0.14801 2.606995,-0.801025 3.505005,-1.828979c1.231995,-1.483032 1.639038,-3.741028 1.288025,-6.706055c-1.200989,-9.397949 -11.015015,-9.419983 -11.442993,-9.414001c-0.335999,0.022034 -0.667053,-0.088989 -0.920044,-0.310974c-0.252991,-0.221008 -0.407959,-0.533997 -0.429993,-0.869995c-0.021973,-0.335999 0.088989,-0.666016 0.311035,-0.919983c0.221008,-0.253052 0.533997,-0.40802 0.869995,-0.429993l36.638,-4.791016c0.169006,-0.027039 0.34198,-0.015991 0.505981,0.031006c0.164978,0.047974 0.317017,0.130005 0.445984,0.242004c0.384033,0.302979 9.273987,7.646973 8.491028,15.30896c-0.367004,3.595032 -2.687012,6.614014 -6.984009,8.940002c-0.291016,0.153992 -0.630005,0.187012 -0.945007,0.092041c-0.315002,-0.095032 -0.580017,-0.311035 -0.737976,-0.600037c-0.157043,-0.287964 -0.194031,-0.627991 -0.103027,-0.94397c0.091003,-0.31604 0.302979,-0.583008 0.590027,-0.744019c3.513977,-1.916016 5.462952,-4.255981 5.737976,-6.955017c0.565002,-5.52301 -5.552002,-11.35199 -7.187988,-12.800964l-29.440979,3.85498c1.96698,0.880005 3.664001,2.268982 4.915955,4.021973c1.252991,1.754028 2.015015,3.809998 2.209045,5.956055c0.475952,3.70697 -0.161011,6.619995 -1.872009,8.606995c-1.351013,1.550964 -3.252991,2.515991 -5.302002,2.688965l-0.210022,0.079041z" />
  <path id="svg_14" fill="white" d="m780.118408,501.41571l-49.174988,13.830017c0,0 7.267029,-39.139008 10.665039,-41.64502c0.902954,-0.56601 1.727966,-1.246002 2.45697,-2.023987c0.578003,-0.804016 0.991028,-1.71402 1.216003,-2.679016c0.856995,-3.001007 1.317017,-6.10199 1.369995,-9.223999c0.111023,-0.869995 -0.104004,-1.751984 -0.60199,-2.473999c-0.700989,-0.609985 -1.606995,-0.931 -2.534973,-0.899994c-3.085999,-0.494995 -6.244019,-0.272003 -9.230042,0.652985c-3.834961,1.494019 -3.938965,3.129028 -5.964966,6.718018c-3.270996,5.811981 -12.314026,34.412994 -15.20105,45.567993c-0.998962,3.994995 -7.194946,22.567993 -3.018982,25.986023c6.86499,5.627991 75.494019,-17.035034 75.494019,-17.035034" />
  <path id="svg_15" fill="#000000" d="m712.592407,536.534729c-0.998962,-0.017029 -1.970947,-0.322021 -2.801941,-0.877014c-3.410034,-2.786987 -0.985046,-13.234985 2.136963,-24.11499c0.309021,-1.049011 0.557983,-1.890991 0.690002,-2.442993c2.992981,-11.823029 11.997009,-39.925018 15.252014,-45.701019c0.396973,-0.687988 0.711975,-1.309998 0.994995,-1.859009c1.223999,-2.389008 1.974976,-3.832977 5.260986,-5.118988c3.069031,-0.971008 6.320007,-1.223999 9.502014,-0.738007c1.070984,-0.016998 2.109009,0.371002 2.904968,1.088989c0.602051,0.827026 0.870056,1.850006 0.751038,2.866028c-0.062012,3.17099 -0.531982,6.320984 -1.39801,9.371979c-0.25,1.036011 -0.695007,2.014008 -1.312012,2.882996c-0.56897,0.652008 -1.227966,1.220001 -1.95697,1.684998l-0.611023,0.44101c-2.313965,1.735992 -7.346008,24.789001 -10.276001,40.427032l48.231995,-13.586029c0.075012,-0.032013 0.156982,-0.048004 0.239014,-0.04599c0.08197,0.001984 0.161987,0.022003 0.236023,0.056976c0.073975,0.036011 0.138977,0.087006 0.191956,0.150024c0.052002,0.062988 0.091003,0.135986 0.113037,0.216003c0.020996,0.078979 0.026001,0.16098 0.013,0.241974c-0.013,0.081024 -0.04303,0.159027 -0.088013,0.22702c-0.044983,0.069 -0.10498,0.126007 -0.174011,0.169983c-0.06897,0.044006 -0.146973,0.072021 -0.229004,0.083008l-49.174011,13.82901c-0.093994,0.024963 -0.191956,0.026001 -0.286987,0.002991c-0.093994,-0.02301 -0.180969,-0.06897 -0.252991,-0.132996c-0.069031,-0.065979 -0.120972,-0.14801 -0.151001,-0.239014c-0.030029,-0.091003 -0.038025,-0.187012 -0.021973,-0.281982c0.750977,-4.03302 7.399963,-39.46402 10.881958,-42.049011l0.638,-0.462982c0.637024,-0.406006 1.216003,-0.896027 1.720032,-1.458008c0.516968,-0.756012 0.893005,-1.598999 1.109009,-2.489014c0.839966,-2.958008 1.295959,-6.011993 1.355957,-9.087006c0.088013,-0.72699 -0.076965,-1.462982 -0.466003,-2.083984c-0.609985,-0.484009 -1.375,-0.731018 -2.152954,-0.696991c-3,-0.470001 -6.067017,-0.246002 -8.966003,0.654999c-2.894043,1.136993 -3.489014,2.28299 -4.663025,4.550995c-0.283997,0.561981 -0.612,1.194 -1.010986,1.894989c-3.080017,5.542999 -12.244019,33.727997 -15.135986,45.424011c-0.145996,0.575012 -0.397034,1.429993 -0.70105,2.442017c-1.58197,5.518982 -5.835999,20.204956 -2.516968,22.906982c5.429016,4.438965 55.947998,-10.862 74.953003,-17.140015c0.070984,-0.024963 0.146973,-0.033997 0.222961,-0.028992c0.075012,0.005005 0.149048,0.025024 0.217041,0.059021c0.067993,0.033997 0.127991,0.079956 0.177979,0.138c0.049011,0.057007 0.087036,0.122986 0.111023,0.195007c0.023987,0.070984 0.033997,0.145996 0.028992,0.220947c-0.005981,0.074036 -0.026001,0.147034 -0.059021,0.21405c-0.033997,0.066956 -0.080994,0.125977 -0.138,0.17395c-0.057007,0.049011 -0.122986,0.085999 -0.19397,0.108032c-2.598022,0.940979 -58.717041,19.390015 -73.196045,17.911011z" />
  <path id="svg_16" fill="white" d="m830.808411,532.172729c3.144043,5.27301 13.945007,11.139954 21.27002,15.471008c19.041992,11.30896 43.460999,21.420959 47.251038,24.434998c3.78894,3.013977 6.895996,12.707947 5.81897,14.645996c-1.078003,1.938965 -8.534973,6.154968 -9.455017,3.722961c-0.920959,-2.432007 -7.542969,-14.998962 -8.950012,-15.494995c-17.459961,-1.684998 -34.305969,-7.330994 -49.254944,-16.506958c-24.820007,-15.419006 -28.675049,-21.607056 -28.675049,-21.607056c0,0 16.957031,-13.174988 21.994995,-4.665955z" />
  <path id="svg_17" fill="#000000" d="m896.740417,591.760681c-0.339966,-0.007996 -0.670959,-0.11499 -0.949951,-0.30896c-0.280029,-0.194031 -0.496033,-0.466003 -0.623047,-0.781006c-0.982971,-2.677979 -7.316956,-14.497986 -8.618958,-15.158997c-0.137024,-0.014038 -0.895996,-0.09198 -1.680054,-0.171997c-16.896973,-1.838989 -33.167969,-7.434998 -47.621948,-16.377991c-24.604004,-15.309021 -28.695007,-21.522034 -28.855042,-21.802002c-0.08197,-0.114014 -0.118958,-0.254028 -0.10498,-0.394043c0.013977,-0.139954 0.078979,-0.269958 0.182007,-0.36499c0.463989,-0.35498 11.440979,-8.885986 18.528992,-7.520996c0.890991,0.151001 1.739014,0.492981 2.486023,1.002991c0.745972,0.511047 1.372986,1.177002 1.836975,1.953003c2.679993,4.522034 11.314026,9.577026 18.265015,13.630005l2.796997,1.656006c10.903015,6.468018 23.747009,12.632019 33.115967,17.134033c7.272034,3.494995 12.532043,6.018982 14.206055,7.345947c3.835999,3.057007 7.297974,12.963013 5.971985,15.366028c-0.942017,1.713989 -6.14801,4.940002 -8.830017,4.741028l-0.106018,0.051941zm-87.112,-54.77594c1.330017,1.618958 7.395996,8.069946 28.170044,21.001953c14.337952,8.827026 30.466003,14.340027 47.20697,16.13501c0.651001,0.04303 1.296997,0.138 1.932007,0.286011c1.809021,0.624023 8.513,13.73999 9.305969,15.81897c-0.009949,0.100037 0.093018,0.324036 0.666016,0.370056c2.189026,0.223999 6.981995,-2.768005 7.752991,-4.160034c0.77002,-1.391968 -1.914001,-10.916992 -5.679993,-13.916016c-1.56897,-1.253967 -7.044006,-3.886963 -13.980957,-7.209961c-9.393005,-4.517029 -22.262024,-10.683044 -33.196045,-17.217041l-2.796997,-1.656006c-7.118958,-4.133972 -15.833008,-9.259949 -18.677002,-14.024963c-0.365967,-0.647034 -0.870972,-1.205017 -1.47998,-1.632996c-0.609009,-0.427002 -1.304993,-0.713013 -2.038025,-0.838013c-5.854004,-1.013 -15.062988,5.461975 -17.19696,7.041992l0.011963,0.001038z" />
  <path id="svg_18" fill="#40b9c1" d="m840.763428,537.827698c-3.617004,-1.500977 -6.244019,-6.670959 -8.187012,-9.797974c-2.914978,-4.684021 -4.998962,-9.749023 -7.721985,-14.463989c-5.934998,-10.310028 -17.309998,-16.713013 -29.050964,-18.051025c-24.370056,-2.716003 -55.625,11.27301 -55.708008,12.080994l0.152954,31.350037l19.829041,-6.345032c1.447998,17.276978 0.797974,34.666016 -1.934998,51.786987c6.695984,0.39502 50.407959,-8.675964 50.407959,-8.675964c1.984009,-6.257019 5.210999,-21.85199 7.262024,-29.498047l10.026978,11.469055l14.924011,-19.855042z" />
  <path id="svg_19" fill="#a9ab98" d="m820.540466,695.047729c-0.177002,-0.019043 -0.347046,-0.074036 -0.501038,-0.164001c-0.153015,-0.088989 -0.286011,-0.210022 -0.388977,-0.355042c-0.192017,-0.268982 -0.269043,-0.604004 -0.215027,-0.930969c0.054993,-0.327026 0.237,-0.617981 0.506042,-0.811035l26.126953,-18.78595c0.132019,-0.106995 0.285034,-0.184998 0.447998,-0.231018c0.164001,-0.046021 0.335022,-0.057983 0.502991,-0.036011c0.16803,0.02301 0.330017,0.078979 0.476013,0.166016c0.14502,0.086975 0.272034,0.203003 0.372009,0.339966c0.098999,0.138 0.169983,0.294006 0.207031,0.460022c0.036987,0.164978 0.039978,0.336975 0.008972,0.504028c-0.031006,0.165955 -0.096008,0.324951 -0.190002,0.466003c-0.094971,0.140991 -0.21698,0.260986 -0.359985,0.353943l-26.127014,18.785034c-0.249023,0.184021 -0.557983,0.268982 -0.865967,0.239014z" />
  <path id="svg_20" fill="#000000" d="m826.164429,657.097717c0,0 -4.369019,9.797974 -3.723999,9.875977c5.051025,0.515991 26.830994,8.03302 34.603027,5.77301c7.77301,-2.26001 -15.552002,-12.989014 -15.552002,-12.989014l-15.327026,-2.659973z" />
  <path id="svg_21" fill="#000000" d="m849.900452,673.524719c-6.596008,-0.924988 -13.119995,-2.309998 -19.52301,-4.143982c-2.632019,-0.753052 -5.299011,-1.373047 -7.992981,-1.859009c-0.096008,-0.015991 -0.187012,-0.052002 -0.269043,-0.106018c-0.080994,-0.054016 -0.149963,-0.124023 -0.200989,-0.205994c-0.148987,-0.267029 -0.47998,-0.841003 3.746033,-10.338989c0.047974,-0.113037 0.133972,-0.205994 0.242981,-0.264038c0.107971,-0.057007 0.234009,-0.075989 0.354004,-0.052002l15.276978,2.654053l0.137024,0.013977c2.963989,1.370972 17.722961,8.359009 17.44397,12.190002c-0.083984,0.828979 -0.737976,1.440979 -1.958984,1.834961c-2.382996,0.528015 -4.839966,0.622009 -7.255981,0.277039zm-26.932007,-7.036987c1.619995,0.252991 4.338989,0.958008 7.680969,1.828003c8.319031,2.105957 20.886047,5.451965 26.182007,3.930969c0.517029,-0.14801 1.135986,-0.424011 1.16803,-0.859985c0.227966,-2.22699 -9.673035,-7.801025 -16.742004,-11.062012l-14.819031,-2.583008c-1.299988,2.855042 -2.453979,5.775024 -3.458008,8.747009l-0.011963,-0.000977z" />
  <path id="svg_22" fill="white" d="m825.807434,583.94873c0,0 41.892029,21.411011 42.442993,28.932983c0.551025,7.521973 -26.80896,46.870972 -26.80896,46.870972l-15.277039,-2.654968c-1.740967,6.219971 16.374023,-41.299988 16.639038,-41.562012c-18.889038,-3.463013 -45.703003,-20.393005 -45.703003,-20.393005" />
  <path id="svg_23" fill="#000000" d="m841.382446,660.324707l-14.744019,-2.575012c-0.347961,0.580017 -0.505981,0.527039 -0.724976,0.454041c-0.558044,-0.195007 -0.400024,-0.757019 -0.259033,-1.28302c0.027039,-0.093018 0.077026,-0.177002 0.145996,-0.244995c0.067993,-0.067993 0.153015,-0.117004 0.246033,-0.143005c1.625,-3.604004 7.429993,-18.596985 11.420959,-28.872009c2.950012,-7.59198 4.093018,-10.529968 4.578003,-11.711975c-18.748962,-3.726013 -44.995972,-20.183044 -45.267944,-20.348999c-0.071045,-0.037048 -0.133057,-0.088013 -0.183044,-0.150024c-0.049011,-0.062012 -0.085999,-0.133972 -0.105957,-0.210999c-0.021057,-0.075989 -0.025024,-0.156982 -0.013,-0.234985c0.011963,-0.079041 0.039978,-0.153992 0.082947,-0.221985c0.042053,-0.067017 0.098022,-0.124023 0.165039,-0.169006c0.065979,-0.044006 0.140015,-0.074036 0.218018,-0.088013c0.078979,-0.015015 0.158997,-0.012024 0.237,0.005981c0.076965,0.018982 0.149963,0.05304 0.212952,0.101013c0.26001,0.164978 26.991028,16.922974 45.559021,20.328979c0.10498,0.018005 0.202026,0.065002 0.281006,0.13501c0.078979,0.070007 0.138,0.161011 0.169006,0.262024c0.02301,0.075989 0.031982,0.156006 0.02301,0.234985c-0.007996,0.078979 -0.032043,0.156006 -0.070007,0.226013c-0.23999,0.502991 -2.368042,5.953979 -4.809021,12.252991c-7.268005,18.72699 -10.075012,25.906006 -11.34198,28.59198l14.028992,2.439026c9.476013,-13.650024 26.919983,-40.449036 26.500977,-46.197998c-0.417969,-5.749023 -30.61499,-22.533997 -42.174988,-28.479004c-0.067993,-0.031982 -0.128967,-0.078003 -0.179993,-0.134033c-0.049988,-0.056946 -0.088013,-0.122986 -0.111023,-0.194946c-0.02301,-0.072021 -0.031006,-0.14801 -0.023987,-0.22406c0.007019,-0.074951 0.030029,-0.147949 0.067017,-0.213989c0.070007,-0.133972 0.188965,-0.234985 0.333008,-0.281006c0.143005,-0.046997 0.299011,-0.034973 0.43396,0.03302c0.112,0.010986 10.606018,5.432007 21.04303,11.664001c21.322021,12.736023 21.604004,16.497986 21.703979,17.73999c0.55603,7.598022 -25.791016,45.630005 -26.909973,47.237c-0.054993,0.090027 -0.134033,0.163025 -0.22699,0.210999c-0.094055,0.048035 -0.199036,0.069031 -0.304016,0.062012z" />
  <path id="svg_24" fill="#40b9c1" d="m908.173462,764.771729c-12.14502,-1.239014 -23.649048,-6.051025 -33.059021,-13.829041c-9.409973,-7.776978 -16.302002,-18.169983 -19.804016,-29.86499c-3.502991,-11.695007 -3.458008,-24.164978 0.127014,-35.834961c3.585999,-11.669006 10.552002,-22.013 20.017029,-29.723022c9.464966,-7.710999 21.003967,-12.440979 33.156982,-13.59198c12.153992,-1.152039 24.375977,1.325989 35.119995,7.120972c10.744995,5.794983 19.529968,14.645996 25.244019,25.434998c5.713989,10.788025 8.099976,23.028015 6.856995,35.173035c-1.683044,16.271973 -9.751038,31.212952 -22.434021,41.545959c-12.684021,10.332031 -28.947998,15.212036 -45.224976,13.569031zm11.909973,-116.567017c-10.914001,-1.117004 -21.914001,1.026978 -31.609009,6.161011c-9.695984,5.13501 -17.649963,13.028992 -22.859009,22.68396c-5.208008,9.656006 -7.435974,20.639038 -6.401978,31.561035c1.033997,10.921997 5.28302,21.292969 12.210999,29.799011c6.927979,8.506958 16.223022,14.768005 26.710022,17.992004c10.485962,3.222961 21.692993,3.264954 32.203979,0.118958c10.51001,-3.145996 19.851013,-9.337952 26.84198,-17.792969c6.991028,-8.455017 11.317017,-18.79303 12.432007,-29.707031c1.478027,-14.628967 -2.906006,-29.247009 -12.190979,-40.64801c-9.285034,-11.40094 -22.713013,-18.653992 -37.338013,-20.167969z" />
  <path id="svg_25" fill="#000000" d="m908.712463,759.496704c-11.098022,-1.132996 -21.610046,-5.53302 -30.208008,-12.640991c-8.598022,-7.109009 -14.89502,-16.606995 -18.093994,-27.294006c-3.200012,-10.687988 -3.15802,-22.083008 0.118958,-32.747009c3.277039,-10.664001 9.643005,-20.115967 18.291992,-27.161987c8.650024,-7.044983 19.194031,-11.367981 30.300049,-12.421021c11.105957,-1.052979 22.274963,1.210999 32.093994,6.505005c9.81897,5.295044 17.847961,13.382019 23.070984,23.23999c5.223022,9.858032 7.406006,21.04303 6.271973,32.141052c-1.536987,14.875 -8.91095,28.532959 -20.504944,37.977966c-11.595032,9.445007 -26.462036,13.905029 -41.341003,12.401001zm11.211975,-109.737c-10.606018,-1.083984 -21.294983,1.002014 -30.716003,5.994019c-9.419983,4.990967 -17.148987,12.664001 -22.208984,22.047974c-5.059998,9.384033 -7.223999,20.057007 -6.217041,30.671021c1.006042,10.614014 5.137024,20.690002 11.871033,28.955994c6.732971,8.265991 15.765991,14.348999 25.95697,17.481018c10.19104,3.131958 21.081055,3.171997 31.295044,0.113953c10.212952,-3.056946 19.289978,-9.074951 26.083984,-17.290955c6.792969,-8.217041 10.997009,-18.263 12.080994,-28.869019c1.439026,-14.219971 -2.822021,-28.429993 -11.848022,-39.510986c-9.026978,-11.080017 -22.080994,-18.127014 -36.297974,-19.593018z" />
  <path id="svg_26" fill="#a9ab98" d="m914.31842,704.628723c-0.253967,-0.026001 -0.494995,-0.127991 -0.688965,-0.294006c-0.194031,-0.166016 -0.333008,-0.387024 -0.39801,-0.634033l-32.187988,-118.231995c-0.085022,-0.320007 -0.040039,-0.66095 0.125977,-0.947998c0.166016,-0.287964 0.439026,-0.497009 0.76001,-0.583008c0.320007,-0.084961 0.661011,-0.039978 0.947998,0.126038c0.288025,0.166016 0.497009,0.438965 0.58197,0.76001l32.164001,118.229004c0.085999,0.317993 0.04303,0.658997 -0.120972,0.945984c-0.163025,0.286987 -0.434021,0.497986 -0.752014,0.585999c-0.140991,0.036011 -0.286987,0.050964 -0.432007,0.044006z" />
  <path id="svg_27" fill="#40b9c1" d="m726.165466,746.17572c-12.144043,-1.241028 -23.64801,-6.054993 -33.05603,-13.833984c-9.40802,-7.779053 -16.296997,-18.173035 -19.797974,-29.867004c-3.5,-11.695007 -3.454041,-24.165039 0.132996,-35.834045c3.586975,-11.667969 10.552979,-22.010986 20.018982,-29.719971c9.465027,-7.708984 21.003967,-12.437012 33.156982,-13.588013c12.153015,-1.151001 24.374023,1.328003 35.118042,7.122986c10.743958,5.796021 19.527954,14.647034 25.241943,25.434998c5.713013,10.788025 8.09906,23.027039 6.856018,35.171021c-1.682983,16.275024 -9.752991,31.218018 -22.438965,41.549988c-12.687012,10.333008 -28.953003,15.210999 -45.231995,13.564026zm11.908997,-116.565979c-10.913025,-1.115051 -21.912048,1.030945 -31.606018,6.166992c-9.694031,5.135986 -17.647034,13.031006 -22.853027,22.686951c-5.20697,9.657043 -7.432983,20.640015 -6.39801,31.561035c1.036011,10.921021 5.287048,21.289978 12.215027,29.796021c6.929016,8.504944 16.223999,14.764954 26.710022,17.987976c10.487,3.223022 21.692993,3.263 32.203003,0.117004c10.508972,-3.145996 19.849976,-9.338013 26.839966,-17.79303c6.98999,-8.454956 11.31604,-18.792969 12.43103,-29.705994c1.479004,-14.630981 -2.907043,-29.250977 -12.195007,-40.653015c-9.288025,-11.401001 -22.718994,-18.652954 -37.346985,-20.16394z" />
  <path id="svg_28" fill="#000000" d="m726.704468,740.901733c-11.094055,-1.145996 -21.600037,-5.554993 -30.188049,-12.670044c-8.588989,-7.11499 -14.875977,-16.617004 -18.065979,-27.303955c-3.189026,-10.688049 -3.138977,-22.080994 0.143982,-32.739014c3.283997,-10.658997 9.653992,-20.10498 18.304993,-27.143982c8.651001,-7.040039 19.195007,-11.356018 30.299011,-12.404053c11.104004,-1.04895 22.268982,1.219055 32.085022,6.515015c9.815002,5.296021 17.839966,13.382996 23.060974,23.239014c5.220032,9.856018 7.401001,21.038025 6.268005,32.133972c-1.541016,14.884033 -8.925964,28.549011 -20.532959,37.994019c-11.607056,9.444031 -26.488037,13.897034 -41.375,12.379028zm11.210999,-109.738037c-10.604004,-1.070984 -21.288025,1.026001 -30.70105,6.026001c-9.412964,5 -17.132996,12.67804 -22.18396,22.064026c-5.050049,9.385986 -7.204041,20.057983 -6.19104,30.669006c1.014038,10.609985 5.151001,20.680969 11.887024,28.940979c6.737,8.26001 15.770996,14.336975 25.960022,17.463989c10.190002,3.127014 21.078003,3.161987 31.287964,0.103027c10.208984,-3.059998 19.28302,-9.078003 26.072998,-17.294006c6.791016,-8.215027 10.993042,-18.259033 12.077026,-28.863037c1.440002,-14.22998 -2.828003,-28.449951 -11.868042,-39.533997c-9.039978,-11.083984 -22.110962,-18.125 -36.340942,-19.575989z" />
  <path id="svg_29" fill="#a9ab98" d="m820.540466,695.047729l-88.230042,-9.015015c-0.226013,-0.02301 -0.442017,-0.106018 -0.623962,-0.242004c-0.182007,-0.135986 -0.322998,-0.31897 -0.408997,-0.530029c-0.085999,-0.209961 -0.113037,-0.439941 -0.078003,-0.66394c0.034973,-0.225037 0.130981,-0.435059 0.276001,-0.610046l57.447998,-70.19696c0.115967,-0.141052 0.260986,-0.255005 0.424988,-0.334045c0.164978,-0.078003 0.343994,-0.119995 0.526978,-0.121948l100.080017,-1.175049c0.247986,-0.007996 0.492981,0.057007 0.703003,0.188049c0.209961,0.131958 0.377014,0.32196 0.479004,0.547974c0.107971,0.213989 0.151978,0.453979 0.127991,0.692017c-0.023987,0.237976 -0.116028,0.464966 -0.265991,0.651978l-69.385986,80.390015c-0.132019,0.151001 -0.299011,0.268005 -0.485046,0.339966c-0.186951,0.072998 -0.388977,0.100037 -0.587952,0.079041zm-85.663025,-11.265991l85.27002,8.711975l67.022949,-77.804016l-96.720947,1.140991l-55.572021,67.95105z" />
  <path id="svg_30" fill="#a9ab98" d="m794.082458,713.258728c-0.179993,-0.018005 -0.353027,-0.075012 -0.509033,-0.166992c-0.154968,-0.092041 -0.289001,-0.216003 -0.391968,-0.365051c-0.093018,-0.134949 -0.158997,-0.286987 -0.194031,-0.447998c-0.034973,-0.159973 -0.037964,-0.325989 -0.007996,-0.487c0.028992,-0.161987 0.090027,-0.315979 0.179016,-0.453979c0.088989,-0.138 0.203979,-0.257019 0.338989,-0.351013l25.684998,-17.661987l-40.719971,-108.896973c-0.117004,-0.309998 -0.105042,-0.654053 0.030945,-0.955994c0.137024,-0.302002 0.388,-0.537048 0.699036,-0.654053c0.309998,-0.115967 0.653992,-0.10498 0.955994,0.032043c0.301025,0.136963 0.536011,0.388 0.653015,0.698975l41.045959,109.772034c0.098999,0.261963 0.107056,0.549988 0.02301,0.816956c-0.083984,0.267029 -0.255981,0.497986 -0.487,0.656006l-26.458008,18.212036c-0.240967,0.18396 -0.540955,0.273987 -0.842957,0.252991z" />
  <path id="svg_31" fill="#000000" d="m819.232422,707.846741c-3.015015,-0.30304 -5.872986,-1.494019 -8.210999,-3.421021c-2.338013,-1.92804 -4.052002,-4.505981 -4.924988,-7.40802c-0.872986,-2.901978 -0.86499,-5.997986 0.021973,-8.895996c0.888,-2.896973 2.615051,-5.46698 4.963013,-7.382996c2.348022,-1.916016 5.210999,-3.09198 8.228027,-3.380005c3.016968,-0.287964 6.050964,0.325989 8.718994,1.763c2.667969,1.437012 4.849976,3.632996 6.268982,6.311035c1.419983,2.677979 2.013,5.715942 1.705017,8.730957c-0.419006,4.033997 -2.41803,7.738037 -5.560974,10.30304c-3.142029,2.563965 -7.172058,3.778992 -11.209045,3.380005zm2.859985,-27.988037c-2.522949,-0.261963 -5.065979,0.229004 -7.30896,1.413025c-2.242981,1.182983 -4.083984,3.005005 -5.291016,5.235962c-1.20697,2.230042 -1.724976,4.768005 -1.487976,7.29303c0.235962,2.524963 1.216003,4.922974 2.815979,6.890991c1.598999,1.96698 3.747009,3.416016 6.169983,4.163025c2.424011,0.746948 5.014038,0.757996 7.444031,0.031982c2.429993,-0.726013 4.588989,-2.156982 6.205994,-4.111023c1.615967,-1.953979 2.615967,-4.343994 2.874023,-6.865967c0.34198,-3.377014 -0.66803,-6.751038 -2.809021,-9.38501c-2.140991,-2.632996 -5.238037,-4.311035 -8.613037,-4.666016z" />
  <path id="svg_32" fill="#000000" d="m731.855408,690.485718c-1.362976,-0.138977 -2.653992,-0.679016 -3.709961,-1.552002c-1.05603,-0.872986 -1.828979,-2.039978 -2.221985,-3.35199c-0.393005,-1.312988 -0.388,-2.712036 0.013977,-4.022034c0.403015,-1.30896 1.184998,-2.469971 2.247009,-3.335999c1.062012,-0.86499 2.356995,-1.395996 3.721008,-1.524963c1.363953,-0.129028 2.735962,0.148987 3.940979,0.79895c1.205994,0.650024 2.192017,1.643005 2.833984,2.854004c0.640991,1.210999 0.908997,2.584045 0.77002,3.947021c-0.190002,1.827026 -1.096008,3.502991 -2.518982,4.663025c-1.424011,1.158997 -3.249023,1.708008 -5.07605,1.523987zm1.154053,-11.294006c-0.871033,-0.088989 -1.749023,0.08197 -2.52301,0.492004c-0.77301,0.409973 -1.40802,1.039978 -1.822998,1.809998c-0.416016,0.770996 -0.593018,1.646973 -0.510986,2.518982c0.082947,0.871033 0.421997,1.699036 0.974976,2.377991c0.552979,0.67804 1.294983,1.17804 2.132019,1.434998c0.835999,0.257019 1.730957,0.261047 2.56897,0.01001c0.838989,-0.251953 1.583984,-0.745972 2.142029,-1.419983c0.557983,-0.674988 0.902954,-1.5 0.992004,-2.370972c0.115967,-1.167053 -0.235046,-2.333008 -0.975037,-3.242004c-0.740967,-0.910034 -1.812012,-1.489014 -2.977966,-1.611023z" />
  <path id="svg_33" fill="#000000" d="m733.072449,678.569702c-0.153992,-0.018982 -0.296021,-0.093994 -0.39801,-0.210999c-0.10199,-0.117004 -0.156006,-0.268005 -0.153015,-0.424011c0,-0.08197 0.015991,-0.162964 0.048035,-0.237976c0.031006,-0.075989 0.078003,-0.143982 0.136963,-0.202026c0.058044,-0.057007 0.127991,-0.10199 0.204041,-0.131958c0.075989,-0.030029 0.157959,-0.044006 0.23999,-0.041992l89.083008,0.666992c0.08197,0.000977 0.162964,0.018982 0.238953,0.050964c0.07605,0.03302 0.14502,0.080017 0.202026,0.139038c0.057983,0.05896 0.103027,0.127991 0.133972,0.204956c0.030029,0.07605 0.046021,0.15802 0.045044,0.241028c-0.001038,0.08197 -0.018005,0.164001 -0.051025,0.239014c-0.031982,0.075989 -0.078979,0.144958 -0.138,0.201965c-0.059021,0.057983 -0.128967,0.103027 -0.205994,0.134033c-0.075989,0.031006 -0.15802,0.045959 -0.241028,0.044983l-89.082947,-0.66803l-0.062012,-0.005981z" />
  <path id="svg_34" fill="#000000" d="m819.296448,707.224731l-87.427002,-17.366028c-0.080994,-0.015015 -0.15802,-0.046997 -0.22699,-0.09198c-0.069031,-0.046021 -0.127991,-0.104004 -0.174011,-0.173035c-0.046021,-0.067993 -0.078979,-0.144958 -0.095032,-0.224976c-0.015991,-0.080994 -0.016968,-0.164001 -0.000977,-0.244995c0.015991,-0.080994 0.046997,-0.15802 0.09198,-0.22699c0.046021,-0.069031 0.104004,-0.127991 0.173035,-0.174011c0.067993,-0.046021 0.144958,-0.078003 0.226013,-0.095032c0.079956,-0.015991 0.164001,-0.016968 0.244995,-0.000977l87.376953,17.361023c0.081055,0.015991 0.15802,0.047974 0.227051,0.093994c0.067993,0.045959 0.126953,0.10498 0.172974,0.174011c0.044983,0.06897 0.077026,0.146973 0.09198,0.227966c0.015991,0.080994 0.015015,0.164001 -0.001953,0.244995c-0.029053,0.153992 -0.115051,0.291016 -0.241028,0.382996c-0.125977,0.092041 -0.28302,0.132996 -0.437988,0.113037z" />
  <path id="svg_35" fill="#000000" d="m756.156433,737.55072l-1.697021,9.718018c0,0 48.348999,12.58197 44.865051,5.47699c-3.485046,-7.106018 -25.769043,-15.843018 -25.769043,-15.843018l-17.398987,0.64801z" />
  <path id="svg_36" fill="#000000" d="m790.394409,755.138733c-12.438965,-1.270996 -32.942993,-6.520996 -36.027954,-7.32605c-0.13501,-0.034973 -0.252014,-0.119995 -0.329041,-0.237c-0.075989,-0.116943 -0.105957,-0.257996 -0.083984,-0.395996l1.708984,-9.71698c0.014038,-0.137024 0.078003,-0.263977 0.179993,-0.356018c0.103027,-0.09198 0.236023,-0.141968 0.374023,-0.140991l17.39801,-0.64801c0.075989,-0.010986 0.153015,-0.002991 0.223999,0.02301c0.919006,0.358032 22.518982,8.900024 26.005005,16.118042c0.174988,0.281982 0.26001,0.609985 0.242004,0.940979c-0.018005,0.330994 -0.138,0.648987 -0.343018,0.908997c-0.942017,1.223999 -4.546997,1.320007 -9.348022,0.830017zm-35.269958,-8.229004c15.916992,4.139954 41.534973,9.52301 43.776001,6.784973c0.006958,-0.073975 0.172974,-0.221008 -0.045044,-0.671021c-3.219971,-6.612976 -23.69397,-14.863953 -25.359985,-15.53595l-16.833008,0.643005l-1.537964,8.778992z" />
  <path id="svg_37" fill="white" d="m768.147461,634.944702c0,0 -12.175049,8.445984 -10.921997,45.389038c1.253967,36.941956 -1.05603,57.205994 -1.05603,57.205994l17.398987,-0.64801l18.033997,-100.971008l-23.454956,-0.976013z" />
  <path id="svg_38" fill="#000000" d="m756.097412,738.122681c-0.074951,-0.008972 -0.146973,-0.032959 -0.212952,-0.069946c-0.06604,-0.038025 -0.123047,-0.087036 -0.170044,-0.147034c-0.045959,-0.059998 -0.079956,-0.127991 -0.099976,-0.200989c-0.02002,-0.072021 -0.026001,-0.148987 -0.017029,-0.223999c0.020996,-0.198975 2.259033,-20.632996 1.046021,-57.106018c-1.262024,-36.855957 10.625,-45.557983 11.138,-45.907959c0.098999,-0.078003 0.224976,-0.115051 0.349976,-0.102051l23.478027,0.991028c0.080994,0.000977 0.159973,0.020996 0.231995,0.055969c0.072998,0.036011 0.135986,0.087036 0.187012,0.150024c0.049011,0.065979 0.085022,0.140991 0.10498,0.220032c0.02002,0.079956 0.023987,0.162964 0.010986,0.243958l-18.020996,100.973022c-0.024963,0.127014 -0.09198,0.242004 -0.188965,0.328003c-0.096985,0.084961 -0.220032,0.135986 -0.350037,0.14502l-17.397949,0.647949l-0.08905,0.002991zm12.193054,-102.610962c-1.371033,1.117004 -11.644043,10.877014 -10.511047,44.815002c1.109009,32.94397 -0.609985,52.841003 -0.984009,56.622986l16.277039,-0.612l17.833008,-99.872986l-22.61499,-0.953003z" />
  <path id="svg_39" fill="#000000" d="m758.138428,584.42572c0,0 -2.969971,2.864014 -3.398987,13.213989c-0.549988,14.486023 0.310974,32.51001 0.89801,41.77002l39.216003,-0.744019l4.273987,-30.143982l26.765015,5.600952l12.873962,-27.592957l-30.229004,-10.819031l-50.398987,8.715027z" />
  <path id="svg_40" fill="#000000" d="m755.581421,639.957703c-0.130981,-0.011963 -0.253967,-0.070984 -0.346008,-0.164978c-0.09198,-0.095032 -0.145996,-0.220032 -0.153992,-0.351013c-0.355957,-5.742981 -1.506958,-25.719971 -0.893005,-41.820007c0.395996,-10.518005 3.438049,-13.474976 3.57605,-13.598999c0.073975,-0.076965 0.171997,-0.124023 0.277954,-0.13501l50.40802,-8.675964c0.096008,-0.015015 0.195007,-0.005005 0.286011,0.028992l30.216003,10.817017c0.073975,0.026978 0.141968,0.067993 0.198975,0.120972c0.057007,0.054016 0.103027,0.117981 0.134033,0.190002c0.023987,0.072021 0.031982,0.146973 0.023987,0.221985c-0.007019,0.075012 -0.031006,0.14801 -0.067993,0.213013l-12.874023,27.593018c-0.055969,0.112 -0.146973,0.203003 -0.26001,0.256958c-0.112,0.055054 -0.23999,0.070007 -0.362,0.044006l-26.185974,-5.48999l-4.189026,29.561035c-0.011963,0.129944 -0.072998,0.250977 -0.170959,0.338989c-0.097046,0.088013 -0.223999,0.135986 -0.355042,0.13501l-39.229004,0.755981l-0.033997,-0.041016zm2.843018,-55.013c-0.515015,0.613037 -2.804993,3.835999 -3.13501,12.726013c-0.586975,15.588013 0.460999,34.851013 0.820007,41.184021l38.231995,-0.719055l4.207031,-29.735962c0.009949,-0.075012 0.034973,-0.14801 0.073975,-0.213013c0.039001,-0.065002 0.09198,-0.120972 0.153992,-0.166016c0.061035,-0.040955 0.130005,-0.070007 0.203003,-0.083984c0.072998,-0.013977 0.147034,-0.013 0.220032,0.002014l26.345947,5.52002l12.440002,-26.670044l-29.513977,-10.557007l-50.046997,8.713013z" />
  <path id="svg_41" fill="#a9ab98" d="m798.070435,719.372681c-0.279968,-0.030945 -0.541992,-0.154968 -0.742981,-0.352966l-10.575012,-10.29303c-0.237976,-0.230957 -0.374023,-0.546997 -0.379028,-0.878967c-0.005005,-0.332031 0.122009,-0.651978 0.353027,-0.890015c0.231018,-0.237976 0.546997,-0.373962 0.877991,-0.378967c0.332031,-0.005005 0.651978,0.121948 0.890015,0.352966l10.585999,10.307007c0.184021,0.18103 0.307007,0.414978 0.352966,0.669006c0.046021,0.253967 0.012024,0.516968 -0.097961,0.750977c-0.109009,0.234009 -0.288025,0.42804 -0.512024,0.55603c-0.224976,0.127991 -0.482971,0.18396 -0.73999,0.158997l-0.013,-0.001038z" />
  <path id="svg_42" fill="#a9ab98" d="m853.995422,676.997681l-0.136963,-0.013977l-20.840027,-4.542969c-0.161987,-0.035034 -0.315002,-0.102051 -0.450012,-0.197021c-0.135986,-0.093994 -0.250977,-0.213989 -0.339966,-0.354004c-0.088989,-0.138977 -0.150024,-0.294006 -0.179016,-0.45697c-0.028992,-0.163025 -0.026001,-0.330017 0.01001,-0.491028c0.034973,-0.161011 0.10199,-0.314026 0.19696,-0.450012c0.094055,-0.13501 0.21405,-0.250977 0.354004,-0.339966c0.139038,-0.08905 0.294006,-0.150024 0.457031,-0.179016c0.162964,-0.028992 0.330017,-0.026001 0.490967,0.01001l20.789001,4.549988c0.328003,0.051025 0.622009,0.231018 0.818054,0.5c0.194946,0.268982 0.274963,0.604004 0.223999,0.932007c-0.052002,0.328003 -0.232056,0.622009 -0.501038,0.817017c-0.268982,0.195984 -0.604004,0.276001 -0.932007,0.223999l0.039001,-0.008057z" />
  <path id="svg_43" fill="white" d="m805.42041,500.670715l-3.347961,11.974976c0,0 -3.028015,5.03302 -10.565002,0.932007c-7.536987,-4.101013 -7.179016,-9.946991 -7.179016,-9.946991l7.046021,-22.09201c0,0 5.953979,-2.056976 7.69696,-15.427979c0,0 11.348022,7.154999 23.667053,8.865997c0,0 -3.777039,14.696991 -6.427002,20.584991c-2.650024,5.888 -10.891052,5.109009 -10.891052,5.109009z" />
  <path id="svg_44" fill="#000000" d="m796.034424,515.774719c-1.714966,-0.212036 -3.367981,-0.77002 -4.859985,-1.640991c-7.760986,-4.249023 -7.533997,-10.284027 -7.520996,-10.534027c-0.000977,-0.053986 0.003967,-0.108978 0.015991,-0.161987l7.046021,-22.09201c0.032959,-0.096985 0.085999,-0.184998 0.156982,-0.257996c0.070007,-0.072998 0.156006,-0.130005 0.250977,-0.165985c0,0 5.613037,-2.166016 7.266052,-14.893005c0.013977,-0.108002 0.054993,-0.210999 0.119995,-0.298004c0.063965,-0.088013 0.148987,-0.15799 0.247986,-0.205017c0.097961,-0.04599 0.20697,-0.066986 0.315979,-0.059998c0.108032,0.007019 0.213989,0.041016 0.30603,0.098022c0.123962,0.013 11.376953,7.108002 23.412964,8.764984c0.179993,0.035004 0.340027,0.136017 0.447998,0.285004c0.049011,0.076996 0.082031,0.162994 0.096008,0.252991c0.015015,0.090027 0.010986,0.182007 -0.010986,0.27002c-0.161987,0.600006 -3.820007,14.755981 -6.452026,20.707977c-2.430969,5.458008 -9.044983,5.61203 -11.008972,5.525024l-3.208008,11.462006c0.002014,0.057983 -0.003967,0.117004 -0.016968,0.174011c-0.746033,1.016968 -1.755005,1.811951 -2.919006,2.299988c-1.163025,0.487976 -2.438049,0.649963 -3.686035,0.468994zm-11.063965,-12.028015c-0.007996,0.69101 0.205994,5.614014 6.846985,9.259033c6.440002,3.523987 9.268982,-0.058044 9.666992,-0.634033l3.323975,-11.863983c0.039001,-0.145996 0.128052,-0.274017 0.252014,-0.360016c0.124023,-0.085999 0.273987,-0.126007 0.424988,-0.112c0.074036,0.007996 7.821045,0.699005 10.237,-4.734985c2.268005,-5.098022 5.488037,-16.809998 6.207031,-19.791016c-10.119995,-1.574005 -19.538025,-6.708984 -22.349976,-8.341003c-1.698059,11.213013 -6.405029,14.22702 -7.676025,14.851013l-6.932983,21.72699z" />
  <path id="svg_45" fill="white" d="m789.030457,475.818726c-0.301025,-3.653015 0.320984,-7.324005 1.807007,-10.675018c0.796997,-1.652985 1.376953,-2.774994 3.23999,-2.182983c1.862,0.592987 3.622009,2.066986 5.721008,2.557983c2.455994,0.565002 1.033997,2.179993 0.330994,3.893005c-0.702026,1.713013 -1.5,3.617004 -2.366028,5.451996c-0.867004,1.834015 -2.580994,6.434998 -4.96698,7.03299c-3.220032,0.878021 -3.765991,-6.077972 -3.765991,-6.077972z" />
  <path id="svg_46" fill="#000000" d="m792.028442,482.648712c-0.518982,-0.057007 -1.005981,-0.273987 -1.39502,-0.621002c-1.779968,-1.526001 -2.18396,-5.438995 -2.235962,-6.161011c-0.313049,-3.766998 0.328979,-7.552979 1.865967,-11.007996c0.794983,-1.627991 1.595032,-3.306 4.023987,-2.479004c0.886047,0.332001 1.744019,0.735016 2.567017,1.20401c0.96698,0.580994 2.007019,1.029999 3.093018,1.334991c0.352966,0.038025 0.692017,0.158997 0.989014,0.352997c0.295959,0.195007 0.542969,0.456024 0.719971,0.764008c0.122009,0.455017 0.140015,0.932007 0.054016,1.39502c-0.087036,0.462982 -0.276001,0.901001 -0.554016,1.280975c-0.14502,0.312012 -0.304016,0.63501 -0.437012,0.960999c-0.766968,1.970001 -1.542969,3.777008 -2.372009,5.502014l-0.437988,0.959991c-1.041016,2.320007 -2.618958,5.82901 -4.955994,6.432007c-0.300964,0.082001 -0.614014,0.109009 -0.924988,0.082001zm1.242981,-19.179016c-0.771973,-0.078979 -1.127014,0.450012 -1.859985,1.959015c-1.432983,3.248993 -2.030029,6.803986 -1.734985,10.342987c0.092957,1.178009 0.614014,4.449005 1.963989,5.378998c0.148987,0.104004 0.320007,0.174011 0.499023,0.205017c0.178955,0.032013 0.362976,0.02301 0.537964,-0.023987c1.742981,-0.450012 3.210999,-3.744019 4.103027,-5.71402c0.164001,-0.372986 0.311951,-0.709991 0.453003,-0.984009c0.815002,-1.701996 1.610962,-3.467987 2.337952,-5.417999c0.137024,-0.349976 0.312012,-0.708984 0.472046,-1.044983c0.283997,-0.574005 0.633972,-1.291992 0.498962,-1.570007c0,0 -0.187012,-0.257996 -0.836975,-0.412994c-1.197998,-0.325012 -2.345032,-0.813995 -3.408997,-1.45401c-0.770996,-0.43399 -1.572021,-0.809998 -2.398987,-1.125c-0.203003,-0.070007 -0.413025,-0.117004 -0.626038,-0.139008z" />
  <path id="svg_47" fill="white" d="m795.331421,481.929718c0.028992,-1.175018 -0.325012,-2.326996 -1.008972,-3.28302c-0.682983,-0.85498 -1.505005,-1.588989 -2.43103,-2.17099c-0.469971,-0.372009 -1.019958,-0.630005 -1.606995,-0.755005c-0.424011,-0.052002 -0.85498,-0.018982 -1.265991,0.097015c-0.995972,0.199982 -1.885986,0.751984 -2.51001,1.552979c-0.420959,0.685028 -0.669006,1.462006 -0.721008,2.264008c-0.132996,0.860016 -0.145996,1.735016 -0.039001,2.597992c0.119995,0.863007 0.410034,1.693024 0.855042,2.442017c0.44397,0.748993 1.031982,1.402985 1.730957,1.921997c0.700012,0.519989 1.495056,0.894989 2.341003,1.104004c0.845032,0.208984 1.723999,0.247009 2.584045,0.113007" />
  <path id="svg_48" fill="#000000" d="m791.572449,488.45871c-1.611023,-0.161011 -3.119995,-0.860992 -4.283997,-1.985992c-1.165039,-1.123993 -1.916016,-2.608002 -2.134033,-4.212006c-0.115967,-0.921997 -0.10498,-1.855988 0.032043,-2.774994c0.072998,-0.906006 0.360962,-1.781006 0.838989,-2.554016c0.70697,-0.914001 1.722961,-1.539001 2.856995,-1.755981c0.485962,-0.138 0.994019,-0.180023 1.495972,-0.124023c0.686035,0.14502 1.330017,0.442017 1.884033,0.871002c0.987,0.611023 1.859985,1.389008 2.580994,2.300018c0.768982,1.067993 1.171021,2.356995 1.14502,3.673981c-0.002014,0.085022 -0.021057,0.169006 -0.055054,0.246002c-0.034973,0.078003 -0.084961,0.14801 -0.146973,0.206024c-0.062012,0.057983 -0.13501,0.102997 -0.215027,0.131989c-0.079956,0.029999 -0.164978,0.042999 -0.25,0.039001c-0.083984,0 -0.167969,-0.016998 -0.245972,-0.050018c-0.078003,-0.033997 -0.14801,-0.08197 -0.205994,-0.143982c-0.057983,-0.061005 -0.104004,-0.132996 -0.132996,-0.212006c-0.030029,-0.079987 -0.04303,-0.164001 -0.039001,-0.247986c0.018982,-1.037018 -0.296021,-2.052002 -0.898987,-2.89502c-0.652039,-0.79599 -1.432007,-1.479004 -2.307007,-2.020996c-0.394043,-0.304993 -0.846008,-0.527008 -1.329041,-0.651001c-0.336975,-0.035004 -0.677979,-0.001984 -1.002991,0.098999c-0.825989,0.157013 -1.572998,0.596008 -2.112,1.242004c-0.354004,0.60199 -0.565002,1.277008 -0.617004,1.972992c-0.118958,0.807007 -0.130981,1.625 -0.034973,2.434998c0.109009,0.777008 0.369995,1.525024 0.77002,2.200012c0.399963,0.674988 0.928955,1.264008 1.557983,1.733002c0.630005,0.468994 1.344971,0.807983 2.106995,0.997986c0.760986,0.190002 1.552002,0.22702 2.328003,0.109009c0.169006,-0.027985 0.343018,0.013 0.481995,0.113007c0.140015,0.100006 0.234009,0.251984 0.260986,0.42099c0.028015,0.170013 -0.013,0.343994 -0.112976,0.483002c-0.100037,0.139008 -0.252014,0.233002 -0.421997,0.261017c-0.591003,0.108978 -1.194031,0.139984 -1.794006,0.092987z" />
  <path id="svg_49" fill="white" d="m809.817444,482.115723c0,0 2.771973,7.30899 1.502991,8.171997c-1.27002,0.862976 -3.906006,-0.524994 -3.906006,-0.524994" />
  <path id="svg_50" fill="#000000" d="m809.797424,491.16272c-0.929016,-0.130005 -1.830017,-0.414001 -2.666992,-0.838013c-0.146973,-0.075989 -0.257019,-0.208008 -0.307007,-0.367004c-0.049988,-0.15799 -0.034973,-0.329987 0.041992,-0.47699c0.07605,-0.147003 0.208008,-0.257996 0.367004,-0.308014c0.15802,-0.048981 0.330017,-0.033997 0.47699,0.042023c0.752014,0.390991 2.546021,1.039978 3.261047,0.559998c0.367004,-0.516022 -0.433044,-4.003998 -1.753052,-7.444c-0.030945,-0.076019 -0.045959,-0.15802 -0.044983,-0.240021c0.001038,-0.082977 0.019043,-0.164001 0.05304,-0.238983c0.032959,-0.075012 0.08197,-0.143005 0.141968,-0.199005c0.059998,-0.056 0.130981,-0.098999 0.208008,-0.127991c0.154968,-0.058014 0.325989,-0.054016 0.47699,0.013977c0.151001,0.067017 0.268982,0.19101 0.328979,0.345001c1.098022,2.903015 2.723022,7.920013 1.275024,8.929016c-0.560974,0.325989 -1.21698,0.449005 -1.859009,0.350006z" />
  <path id="svg_51" fill="white" d="m808.228455,493.478699l-5.321045,-1.799988c0,0 -1.873962,3.57901 0.70105,5.437988c2.575989,1.859009 4.619995,-3.638 4.619995,-3.638z" />
  <path id="svg_52" fill="#000000" d="m804.393433,498.051697c-0.437988,-0.048981 -0.85498,-0.212982 -1.208984,-0.475983c-2.338989,-1.709015 -1.557007,-4.80899 -0.820984,-6.230011c0.070984,-0.127991 0.18396,-0.227997 0.319946,-0.28299c0.136047,-0.054993 0.287048,-0.061005 0.427002,-0.016998l5.321045,1.799988c0.080994,0.027008 0.154968,0.070007 0.217957,0.126007c0.064026,0.056 0.115051,0.123993 0.151001,0.200989c0.025024,0.080017 0.033997,0.164001 0.026001,0.248016c-0.008972,0.083008 -0.033997,0.164001 -0.074951,0.237c-0.152039,0.373993 -1.511047,3.71701 -3.558044,4.311981c-0.26001,0.076019 -0.531006,0.103027 -0.799988,0.082001zm-1.133972,-5.633972c-0.373047,0.942993 -0.921997,2.997986 0.669983,4.140991c0.130981,0.11499 0.289001,0.195007 0.458008,0.231995c0.169983,0.036987 0.346985,0.029999 0.513977,-0.019989c0.997009,-0.287018 1.981018,-1.921021 2.47699,-2.96402l-4.118958,-1.388977z" />
  <path id="svg_53" fill="#000000" d="m796.81543,475.520721l0.328979,-1.123016l0.249023,0.026001c0.734009,0.075012 25.429016,7.110016 26.849976,7.846008c0.092041,0.044006 0.163025,0.121002 0.200012,0.216003c0.036987,0.093994 0.036987,0.199982 -0.000977,0.294006l-0.288025,0.975983c-0.019958,0.089996 -0.063965,0.171997 -0.128967,0.237c-0.064026,0.063995 -0.145996,0.109009 -0.236023,0.127991c-0.300964,0.091003 -0.567017,0.275024 -0.757019,0.526001c-0.143982,0.174011 -0.261963,0.351013 -0.380981,0.527008c-0.421997,0.686005 -0.81897,1.373993 -1.252014,2.04599c-0.377991,0.639008 -0.912964,1.171021 -1.553955,1.545013c-0.640991,0.375 -1.366028,0.57901 -2.108032,0.595001c-1.130005,0.049988 -2.252991,-0.195007 -3.258972,-0.709991c-0.762024,-0.341003 -1.432007,-0.856995 -1.955017,-1.507019c-0.523987,-0.649994 -0.885986,-1.414978 -1.05603,-2.231995c-0.192993,-0.824005 -0.304993,-1.665009 -0.334961,-2.51001c-0.02301,-0.376984 -0.085999,-0.75 -0.187988,-1.112976c-0.054016,-0.149017 -0.163025,-0.272003 -0.304016,-0.345001c-0.244019,-0.119019 -0.5,-0.212006 -0.763,-0.279022c-0.119995,-0.040985 -0.25,-0.042999 -0.371033,-0.005981c-0.120972,0.036987 -0.227966,0.112 -0.303955,0.212982c-0.241028,0.279022 -0.460022,0.576019 -0.656006,0.889008c-0.502014,0.894012 -1.176025,1.679016 -1.983032,2.311005c-0.876953,0.791016 -2.013,1.234009 -3.19397,1.243988c-0.41803,-0.000977 -0.835022,-0.042999 -1.244019,-0.126984c-1.231995,-0.209015 -2.390015,-0.730011 -3.36499,-1.511993c-0.640015,-0.462006 -1.073975,-1.156006 -1.210022,-1.934021c-0.182983,-1.224976 -0.244995,-2.464996 -0.187988,-3.701996c0.031006,-0.445007 -0.062988,-0.889984 -0.27002,-1.283997c-0.227966,-0.368988 -0.324951,-0.803986 -0.276978,-1.234985z" />
  <path id="svg_54" fill="#000000" d="m805.42041,500.670715c0,0 -6.166992,-1.886993 -8.533997,-4.429016c0,0 0.248047,7.779999 6.356018,11.597015l2.177979,-7.167999z" />
  <path id="svg_55" fill="#000000" d="m803.228455,508.465698c-0.092041,0.007996 -0.184998,-0.002014 -0.27301,-0.028015c-6.371033,-3.95697 -6.677979,-11.780975 -6.694031,-12.108978c-0.009949,-0.128998 0.022034,-0.256989 0.090027,-0.367004c0.067993,-0.108978 0.167969,-0.194977 0.288025,-0.243988c0.118958,-0.049011 0.25,-0.05899 0.375977,-0.028992c0.125,0.029999 0.237976,0.098999 0.322021,0.196991c2.267944,2.406006 8.200989,4.243988 8.261963,4.261993c0.078003,0.02301 0.150024,0.062012 0.213989,0.113007c0.063049,0.052002 0.115051,0.11499 0.153015,0.187012c0.038025,0.070984 0.062012,0.149994 0.070007,0.230988c0.007019,0.080994 -0.000977,0.162994 -0.026001,0.23999l-2.124023,7.136017c-0.027954,0.09198 -0.076965,0.175995 -0.143005,0.244995c-0.065979,0.070007 -0.146973,0.122986 -0.237,0.155975c-0.089966,0.028015 -0.185974,0.031006 -0.277954,0.01001zm-5.531006,-10.695984c0.528992,3.583984 2.403992,6.832001 5.244019,9.083008l1.707947,-5.770996c-2.45697,-0.78302 -4.795959,-1.897003 -6.951965,-3.312012z" />
  <path id="svg_56" fill="#000000" d="m797.395447,474.398712l-9.424011,-2.118988l-0.117004,1.143982l10.856995,3.962006l-1.315979,-2.987z" />
  <path id="svg_57" fill="white" d="m791.052429,459.47171c-0.921021,2.373993 -1.184998,4.953003 -0.761963,7.463989c2.369995,2.756012 22.669983,10.737 33.129944,13.050018c1.083008,-0.712006 1.888,-1.774017 2.281006,-3.01001l-34.648987,-17.503998z" />
  <path id="svg_58" fill="#000000" d="m823.354431,480.632721l-0.075012,-0.007996c-10.619995,-2.34201 -30.950989,-10.389008 -33.473999,-13.249023c-0.083984,-0.10199 -0.140991,-0.225006 -0.164978,-0.355988c-0.453003,-2.636017 -0.176025,-5.346008 0.801025,-7.835999c0.034973,-0.078003 0.085999,-0.147003 0.15094,-0.20401c0.064026,-0.056 0.140015,-0.097992 0.221008,-0.122986c0.162048,-0.046997 0.335999,-0.029022 0.485046,0.049988l34.659973,17.518005c0.13501,0.066986 0.242004,0.178009 0.304016,0.315002c0.060974,0.136993 0.073975,0.290985 0.034973,0.436005c-0.442993,1.388977 -1.349976,2.583984 -2.570984,3.381989c-0.112976,0.062012 -0.242981,0.088013 -0.372009,0.075012zm-32.505005,-14.005005c2.682007,2.536987 21.801025,10.272003 32.379028,12.660004c0.69696,-0.516022 1.247986,-1.205017 1.598999,-1.999023l-33.463013,-16.929993c-0.593018,2.036011 -0.747009,4.175018 -0.453003,6.276001l-0.062012,-0.006989z" />
  <path id="svg_59" fill="white" d="m825.701416,476.975708c-7.895996,-0.223999 -15.609985,-2.424988 -22.434998,-6.402008c-6.596008,-4.155975 -11.745972,-10.247986 -14.745972,-17.444c0,0 12.498962,-4.11499 23.924011,-0.42099c14.036987,4.575989 16.572998,15.179993 13.256958,24.266998z" />
  <path id="svg_60" fill="#000000" d="m822.275452,477.417725c-6.828003,-0.673004 -13.427002,-2.823029 -19.341003,-6.300018c-6.73999,-4.208008 -11.991028,-10.423981 -15.014038,-17.77301c-0.026001,-0.08197 -0.033997,-0.167999 -0.024963,-0.252991c0.007996,-0.085999 0.033997,-0.169006 0.075989,-0.243988c0.036987,-0.076996 0.088989,-0.14502 0.153015,-0.201019c0.063965,-0.056 0.138977,-0.098999 0.218994,-0.125c0.520996,-0.173981 12.828979,-4.144989 24.276978,-0.423981c6.421997,2.088989 11.082031,5.695007 13.348022,10.450989c1.042969,2.302002 1.611023,4.791016 1.667969,7.317017c0.057007,2.526978 -0.396973,5.039001 -1.334961,7.384979c-0.04303,0.123016 -0.124023,0.230011 -0.231018,0.304016c-0.106995,0.074982 -0.234009,0.113983 -0.364014,0.113007c-1.14801,-0.02002 -2.292969,-0.104004 -3.430969,-0.25zm-32.880005,-23.872009c2.992004,6.794983 7.932983,12.548981 14.197998,16.533997c6.609985,3.796997 14.044006,5.932007 21.661011,6.221985c1.617004,-4.306 1.458008,-9.077972 -0.44104,-13.266998c-2.16095,-4.444 -6.414001,-7.718994 -12.617981,-9.735992c-9.575989,-3.089996 -20.096985,-0.493988 -22.799988,0.247009z" />
  <path id="svg_61" fill="#a9ab98" d="m821.910461,472.742706c-0.13501,-0.011993 -0.263,-0.067993 -0.362,-0.160004c-0.100037,-0.09198 -0.166016,-0.214996 -0.189026,-0.348999c-1.732971,-6.877991 -6.124023,-12.786987 -12.210022,-16.429993c-0.131958,-0.088989 -0.225952,-0.223999 -0.263,-0.378998c-0.03595,-0.154999 -0.010986,-0.317993 0.068054,-0.455017c0.079956,-0.13797 0.208984,-0.23999 0.362,-0.28598c0.151978,-0.04599 0.315979,-0.031006 0.458984,0.040009c3.187012,1.871979 5.964966,4.366974 8.166992,7.336975c2.200989,2.970001 3.781982,6.352997 4.646973,9.947021c0.026001,0.162994 -0.010986,0.328979 -0.104004,0.464996c-0.093994,0.135986 -0.235962,0.22998 -0.397949,0.263l-0.177002,0.006989z" />
  <path id="svg_62" fill="#a9ab98" d="m813.647461,470.088715c-0.116028,-0.007996 -0.228027,-0.049011 -0.321045,-0.118011c-0.092957,-0.070007 -0.164001,-0.165985 -0.203979,-0.274994c-1.590027,-3.390991 -3.914978,-6.385986 -6.807007,-8.766998c-2.891968,-2.380005 -6.278015,-4.085999 -9.911987,-4.994995c-0.158997,-0.044006 -0.294983,-0.14801 -0.377991,-0.290009c-0.083984,-0.141998 -0.109985,-0.311981 -0.072021,-0.471985c0.020996,-0.080017 0.057007,-0.154999 0.106018,-0.220001c0.049988,-0.06601 0.110962,-0.122009 0.182007,-0.163025c0.070984,-0.041992 0.148987,-0.069977 0.230957,-0.080994c0.081055,-0.011993 0.164001,-0.006989 0.244019,0.014008c3.840027,0.927002 7.41803,2.71701 10.462036,5.235016c3.044983,2.516998 5.475952,5.694977 7.107971,9.291992c0.031006,0.076996 0.046021,0.15799 0.044983,0.240997c-0.001953,0.082001 -0.019958,0.162994 -0.052979,0.238007c-0.033997,0.074982 -0.082031,0.142975 -0.142029,0.198975c-0.060974,0.056 -0.130981,0.100006 -0.208984,0.128021c-0.088989,0.035004 -0.184998,0.046997 -0.279968,0.033997z" />
  <path id="svg_63" fill="white" d="m740.314453,538.298706l39.515991,-11.309021l-39.515991,11.309021z" />
  <path id="svg_64" fill="#000000" d="m740.256409,538.870728c-0.128967,-0.018005 -0.247986,-0.079041 -0.336975,-0.173035c-0.089966,-0.093994 -0.14502,-0.216003 -0.156006,-0.344971c-0.011963,-0.130005 0.020996,-0.259033 0.09198,-0.367981c0.072021,-0.108032 0.17804,-0.189026 0.301025,-0.230042l39.517029,-11.32196c0.140991,-0.025024 0.28595,0.001953 0.406982,0.077942c0.120972,0.075012 0.210022,0.193054 0.249023,0.330017c0.03894,0.137024 0.02594,0.283997 -0.037048,0.411987c-0.062988,0.128052 -0.170959,0.228027 -0.303955,0.281006l-39.515015,11.309021c-0.069031,0.026001 -0.143982,0.036011 -0.217041,0.028015z" />
  <path id="svg_65" fill="#000000" d="m757.662415,718.260681c-0.130981,-0.014954 -0.251953,-0.076965 -0.34198,-0.17395c-0.088989,-0.096008 -0.140015,-0.222046 -0.14502,-0.353027c-0.005005,-0.072998 0.005005,-0.145996 0.028015,-0.213989c0.023987,-0.069031 0.062012,-0.132019 0.111023,-0.185974c0.049011,-0.054016 0.107971,-0.097046 0.174011,-0.127014c0.065979,-0.030029 0.138,-0.046997 0.210999,-0.048035l20.056946,-0.954956c0.147034,-0.007019 0.291016,0.043945 0.401001,0.141968c0.109009,0.098999 0.176025,0.236023 0.186035,0.382996c0.002991,0.072998 -0.007996,0.145996 -0.033997,0.213989c-0.025024,0.069031 -0.064026,0.132019 -0.114014,0.184998c-0.049988,0.054016 -0.109985,0.097046 -0.176025,0.127014c-0.066956,0.028992 -0.138977,0.046021 -0.211975,0.048035l-20.057983,0.96698l-0.087036,-0.009033z" />
  <path id="svg_66" fill="#000000" d="m850.880432,644.992737c-1.244019,-0.127014 -5.013977,-1.002014 -17.945007,-3.970032c-0.143982,-0.03302 -0.268005,-0.120972 -0.346008,-0.245972c-0.078003,-0.125 -0.102966,-0.275024 -0.070007,-0.41803c0.03302,-0.143982 0.121033,-0.268005 0.246033,-0.346008c0.124023,-0.078003 0.275024,-0.102966 0.417969,-0.070007c6.840027,1.578003 17.195007,3.93103 17.899048,4.05304c0.099976,0.000977 0.197998,0.032959 0.279968,0.091003c0.119019,0.08197 0.200989,0.20697 0.229004,0.347961c0.028015,0.142029 -0.000977,0.289001 -0.080017,0.408997c-0.074951,0.118042 -0.133972,0.200012 -0.630981,0.149048z" />
  <path id="svg_67" fill="white" d="m746.712463,460.057709l-0.624023,4.75c0.015991,0.373016 -0.095032,0.740997 -0.315979,1.041992c-0.220032,0.302002 -0.536011,0.52002 -0.895996,0.619019l-2.379028,1.013977c-1.539001,0.747009 -3.14502,1.348022 -4.796021,1.797028c-2.115967,0.503998 -4.322998,0.484985 -6.429993,-0.053009c-0.273987,-0.042999 -0.526001,-0.175018 -0.716003,-0.375c-0.146973,-0.26001 -0.195984,-0.563995 -0.138977,-0.856995c0.195984,-2.040009 0.747986,-4.029022 1.630981,-5.878021" />
  <path id="svg_68" fill="#000000" d="m733.195435,470.201721c-0.682983,-0.069 -1.359985,-0.188995 -2.025024,-0.357025c-0.210999,-0.02298 -0.414978,-0.090973 -0.597961,-0.199982c-0.182983,-0.108002 -0.340027,-0.253998 -0.462036,-0.429016c-0.120972,-0.173981 -0.203979,-0.371979 -0.242981,-0.582001c-0.037964,-0.208984 -0.031006,-0.422974 0.02002,-0.629974c0.195007,-2.122009 0.768982,-4.19101 1.692993,-6.111023c0.067993,-0.135986 0.187012,-0.23999 0.330017,-0.289001c0.143982,-0.048981 0.302002,-0.039001 0.437988,0.028015c0.067993,0.031982 0.127991,0.076996 0.177002,0.132996c0.049988,0.054993 0.088013,0.119995 0.112,0.190002c0.024963,0.070007 0.034973,0.144989 0.029968,0.218994c-0.003967,0.074005 -0.023987,0.147003 -0.055969,0.21402c-0.862,1.783997 -1.395996,3.709991 -1.574036,5.68399c-0.027954,0.153992 -0.022949,0.312988 0.015015,0.466003c0.122009,0.085999 0.263,0.143982 0.410034,0.167999c2.017944,0.505981 4.127991,0.52298 6.153992,0.049988c1.618958,-0.425995 3.192993,-1.005981 4.701965,-1.730988l2.377991,-1.014008c0.240051,-0.082001 0.459045,-0.213989 0.643005,-0.386993c0.145996,-0.248993 0.227051,-0.529999 0.234009,-0.817993l0.624023,-4.751007c0.024963,-0.147003 0.10498,-0.279999 0.223999,-0.369995c0.119019,-0.091003 0.268005,-0.133026 0.416992,-0.117004c0.075012,0.007996 0.148987,0.029999 0.215027,0.066986c0.066956,0.037018 0.125,0.087006 0.171997,0.147003c0.046997,0.059998 0.080994,0.128998 0.099976,0.201996c0.018982,0.074005 0.023987,0.149994 0.013,0.226013l-0.63501,4.735992c-0.026001,0.502014 -0.192993,0.985992 -0.481995,1.395996c-0.288025,0.319 -0.648987,0.563019 -1.052979,0.709991l-2.379028,1.014008c-1.589966,0.766998 -3.252014,1.377014 -4.961975,1.817993c-1.515015,0.366028 -3.080994,0.473022 -4.632019,0.318024z" />
  <path id="svg_69" fill="white" d="m799.071411,609.069702l-0.099976,-0.01001c-0.070007,-0.019958 -0.13501,-0.052979 -0.192017,-0.096985c-0.057007,-0.044983 -0.10498,-0.101013 -0.140991,-0.164001c-0.034973,-0.062988 -0.057983,-0.132996 -0.067017,-0.205017c-0.007996,-0.07196 -0.001953,-0.144958 0.017029,-0.214966c0.015991,-0.148987 4.062988,-15.156982 4.872986,-24.564026c0.012024,-0.146973 0.080017,-0.282959 0.19104,-0.380005c0.110962,-0.096985 0.254944,-0.145996 0.401978,-0.138c0.075012,0.002014 0.14801,0.02002 0.214966,0.05304c0.067017,0.031982 0.126038,0.078979 0.173035,0.135986c0.047974,0.057007 0.083008,0.124023 0.102966,0.195007c0.02002,0.07196 0.024048,0.146973 0.013,0.221008c-0.771973,9.523987 -4.867981,24.639954 -4.906982,24.774963c-0.03302,0.124023 -0.109985,0.231995 -0.21698,0.304016c-0.106995,0.072021 -0.234985,0.103027 -0.363037,0.088989z" />
  <path id="svg_70" fill="white" d="m759.630432,635.758728c-0.130981,-0.012024 -0.253967,-0.071045 -0.346008,-0.165039c-0.09198,-0.094971 -0.145996,-0.219971 -0.153992,-0.35199c0.030029,-0.297974 -1.925964,-30.362 2.315979,-48.505005c0.016052,-0.070984 0.046997,-0.138 0.08905,-0.19696c0.041992,-0.059998 0.095947,-0.110046 0.156982,-0.149048c0.062012,-0.037964 0.130981,-0.063965 0.203003,-0.076965c0.070984,-0.012024 0.14502,-0.009033 0.216003,0.007019c0.070984,0.015991 0.138,0.045959 0.19696,0.088989c0.059021,0.041992 0.110046,0.094971 0.14801,0.156982c0.039001,0.062012 0.065002,0.130005 0.077026,0.202026c0.011963,0.07196 0.01001,0.145996 -0.005981,0.21698c-4.142029,18.028015 -2.379028,47.882996 -2.297058,48.192993c0.005005,0.072021 -0.003967,0.14502 -0.026978,0.213989c-0.02301,0.069031 -0.059021,0.132019 -0.106995,0.187012c-0.047974,0.054993 -0.106018,0.098999 -0.171021,0.130981c-0.065002,0.03302 -0.134949,0.052002 -0.208008,0.05603l-0.086975,-0.007996z" />
  <path id="svg_71" fill="white" d="m834.179443,588.988708l-0.150024,-0.015015l-21.734009,-8.705994c-0.067993,-0.026001 -0.128967,-0.065002 -0.180969,-0.114014c-0.052002,-0.049988 -0.093018,-0.109985 -0.122009,-0.175964c-0.028015,-0.067017 -0.042969,-0.138 -0.042969,-0.210022c-0.001038,-0.07196 0.013,-0.143005 0.040955,-0.209961c0.026001,-0.069031 0.065002,-0.132019 0.116028,-0.185059c0.050964,-0.053955 0.112,-0.095947 0.179016,-0.125977c0.067993,-0.028992 0.139954,-0.044983 0.213989,-0.046021c0.073975,0 0.146973,0.014038 0.214966,0.041016l21.734009,8.707031c0.137024,0.054993 0.247009,0.161011 0.30603,0.296997c0.05896,0.13501 0.062988,0.287964 0.01001,0.425964c-0.05304,0.106995 -0.137024,0.195007 -0.242004,0.252014c-0.105042,0.057007 -0.225037,0.080017 -0.343018,0.065002z" />
  <path id="svg_72" fill="white" d="m763.506409,597.818726c-0.132996,-0.012024 -0.256958,-0.072021 -0.348999,-0.170044c-0.09198,-0.096985 -0.144958,-0.223999 -0.149963,-0.357971c-0.002991,-0.146973 0.052002,-0.289001 0.151978,-0.395996c0.100037,-0.106995 0.238037,-0.171021 0.38501,-0.177979c0.335022,0.033997 8.335999,-0.405029 12.119019,-12.085022c0.044006,-0.138 0.141968,-0.254028 0.270996,-0.320984c0.130005,-0.067017 0.279968,-0.079041 0.419006,-0.036011c0.138977,0.047974 0.255005,0.14801 0.320984,0.278992c0.067017,0.130981 0.078979,0.283997 0.034973,0.424011c-4.020996,12.408997 -12.761963,12.835999 -13.127991,12.848999l-0.075012,-0.007996z" />
  <path id="svg_73" fill="url(#paint0_linear_9_11)" d="m1929.523438,536.428711l0,218l-219,-21l0,-164.5l33.329956,0l0,-178.5l8.910034,-10l0,-27l18.930054,0l1.669922,-35l1.670044,35l18.929932,0l0,27l43.430054,39l0,122l30.060059,0l0,-74l50.659912,-27l-0.589966,96l12,0z" />
  <path id="svg_74" fill="url(#paint1_linear_9_11)" d="m1929.523438,529.428711l0,312.5l-219,75.5l0,-191.609985l35.189941,0l0,-132.372009l34.26001,0l0,-11.411011l11.420044,0l0,-9.128967l27.400024,0l0,9.128967l9.130005,0l0,13.692993l21.699951,20.541016l21.690063,0l0,117.536987l20.559937,0l0,-236.216003l37.650024,31.838013z" />
  <path id="svg_75" fill-opacity="0.91" fill="url(#paint2_linear_9_11)" d="m107.815964,207.428711l65.707489,71.779999l0,232.209991l17,0l0,409.51001l-180.999996,-15l0,-167.5l0,-329.618011l20.638302,0l0,49.846008l19.911297,0l0,-111.656982l33.849308,25.92099l0,85.735992l25.885094,0l-1.991493,-251.227997z" />
  <path id="svg_76" fill-opacity="0.94" fill="url(#paint3_linear_9_11)" d="m190.523453,628.928711l0,367.5l-180.999996,55l0,-435.505005l29.941502,0l0,-62.73999l17.664898,-19.606018l0,-92.148987l49.069103,0l21.5905,23.527008l0,117.636993l31.403992,0l0,154.888977l17.665009,0l0,-96.070984l13.664993,-12.481995z" />
  <path id="svg_77" fill="#5c7a45" d="m190.523453,969.428711l1519.999985,0l0,107l-1700.999981,0l0,-441l35.686199,-35.047974l0,239.194946l15.702103,0l0,-119.597961l41.218102,0l23.553604,-23.527039l64.839989,0l0,272.978027z" />
  <path id="svg_78" fill="#5c7a45" d="m1929.523438,1076.428711l-219,0l0,-205.317993l19.910034,0l0,-99.778015l61.309937,-36.406006l0,117.981018l20.890015,0l0,-58.733032l44.459961,0l0,-128.013l16.850098,0l43.119995,-43.146973l12.459961,10.914001l0,442.5z" />
 </g>
<radialGradient id="lightGradient" cx="50%" cy="50%" r="50%" fx="50%" fy="50%"><stop offset="0%" style="stop-color:#FFFFAA;stop-opacity:0.8" /><stop offset="100%" style="stop-color:#000000;stop-opacity:0" /></radialGradient><g id="lamp"><rect x="320" y="50" width="5" height="250" fill="#4B4B4B" /><ellipse cx="322.5" cy="50" rx="20" ry="10" fill="#FFFFAA" /><circle cx="320" cy="300" r="150" fill="url(#lightGradient)" opacity="0.7" /></g></svg>