<svg width="20" height="20" viewBox="0 0 20 20" fill="none" xmlns="http://www.w3.org/2000/svg">
<path d="M1.00006 1L18.2916 18.2915" stroke="black" stroke-width="1.62915" stroke-linecap="round" stroke-linejoin="round"/>
<path d="M5.07461 5.08307C2.4394 6.87505 1.00006 9.64578 1.00006 9.64578C1.00006 9.64578 4.14397 15.6978 9.64582 15.6978C11.4185 15.6978 12.9462 15.0696 14.2031 14.218M8.78124 3.64409C9.06258 3.61115 9.35082 3.59375 9.64582 3.59375C15.1476 3.59375 18.2916 9.64578 18.2916 9.64578C18.2916 9.64578 17.6935 10.7971 16.5624 12.0956" stroke="black" stroke-width="1.62915" stroke-linecap="round" stroke-linejoin="round"/>
<path d="M11.3749 11.5791C10.916 11.9898 10.3101 12.2396 9.64579 12.2396C8.21327 12.2396 7.05206 11.0784 7.05206 9.64586C7.05206 8.93371 7.33904 8.28865 7.80366 7.81995" stroke="black" stroke-width="1.62915" stroke-linecap="round" stroke-linejoin="round"/>
</svg>
