<svg width="144" height="144" viewBox="0 0 144 144" fill="none" xmlns="http://www.w3.org/2000/svg">
<path d="M15.0761 143.333C10.9685 143.333 7.5415 141.96 4.79516 139.214C2.04883 136.467 0.672692 133.037 0.666748 128.924V15.0758C0.666748 10.9682 2.04289 7.54125 4.79516 4.79492C7.54744 2.04859 10.9744 0.672448 15.0761 0.666504H77.4928V9.58317H15.0761C13.4711 9.58317 12.1544 10.0974 11.126 11.1258C10.0976 12.1541 9.58342 13.4708 9.58342 15.0758V128.933C9.58342 130.532 10.0976 131.846 11.126 132.874C12.1544 133.902 13.4711 134.417 15.0761 134.417H128.933C130.532 134.417 131.846 133.902 132.874 132.874C133.903 131.846 134.417 130.529 134.417 128.924V66.5072H143.333V128.924C143.333 133.031 141.96 136.458 139.214 139.205C136.468 141.951 133.038 143.327 128.924 143.333H15.0761ZM25.357 111.091H118.643L89.8334 72.6864L63.0834 106.472L45.2501 85.036L25.357 111.091ZM116.583 45.2498V27.4165H98.7501V18.4998H116.583V0.666504H125.5V18.4998H143.333V27.4165H125.5V45.2498H116.583Z" fill="black"/>
</svg>
