<svg width="50" height="50" viewBox="0 0 50 50" fill="none" xmlns="http://www.w3.org/2000/svg">
<circle cx="25" cy="25" r="25" fill="#E3E4E4"/>
<g clip-path="url(#clip0_26_45)">
<path fill-rule="evenodd" clip-rule="evenodd" d="M38.4004 17.7344C38.609 17.0734 38.4004 16.593 37.4775 16.593L34.409 16.593C33.635 16.593 33.2775 17.0137 33.0689 17.4637C33.0689 17.4637 31.4904 21.3074 29.2861 23.7994C28.5713 24.5201 28.2437 24.7604 27.8564 24.7604C27.6479 24.7604 27.3795 24.5201 27.3795 23.8598L27.3795 17.7033C27.3795 16.9229 27.1416 16.5625 26.4859 16.5625L21.6602 16.5625C21.1832 16.5625 20.8855 16.9229 20.8855 17.2832C20.8855 18.0338 21.9877 18.2143 22.1066 20.316L22.1066 24.8828C22.1066 25.8736 21.9309 26.0547 21.5406 26.0547C20.4982 26.0547 17.9664 22.1811 16.4477 17.7672C16.1523 16.893 15.8523 16.5625 15.0777 16.5625L11.9799 16.5625C11.0863 16.5625 10.9375 16.9826 10.9375 17.4332C10.9375 18.2441 11.9799 22.3275 15.7926 27.7322C18.3244 31.4236 21.9285 33.4076 25.1752 33.4076C27.1416 33.4076 27.3795 32.957 27.3795 32.2064L27.3795 29.4139C27.3795 28.5133 27.5582 28.3633 28.184 28.3633C28.6305 28.3633 29.435 28.6029 31.252 30.3748C33.3367 32.4766 33.6941 33.4375 34.8561 33.4375L37.924 33.4375C38.8176 33.4375 39.2348 32.9869 38.9963 32.1162C38.7285 31.2455 37.7154 29.9846 36.4047 28.4834C35.6898 27.6432 34.6176 26.7121 34.29 26.2615C33.8436 25.6609 33.9625 25.4207 34.29 24.8805C34.2602 24.8805 38.0137 19.5355 38.4004 17.732" fill="black"/>
</g>
<defs>
<clipPath id="clip0_26_45">
<rect width="30" height="30" fill="white" transform="translate(10 10)"/>
</clipPath>
</defs>
</svg>
