<svg width="220" height="220" viewBox="0 0 220 220" fill="none" xmlns="http://www.w3.org/2000/svg">
<path d="M137.5 187C138.959 187 140.358 186.421 141.389 185.389C142.421 184.358 143 182.959 143 181.5C143 180.041 142.421 178.642 141.389 177.611C140.358 176.579 138.959 176 137.5 176H66C60.1652 176 54.5694 173.682 50.4436 169.556C46.3178 165.431 44 159.835 44 154V66C44 60.1652 46.3178 54.5694 50.4436 50.4436C54.5694 46.3178 60.1652 44 66 44H137.5C138.959 44 140.358 43.4205 141.389 42.3891C142.421 41.3576 143 39.9587 143 38.5C143 37.0413 142.421 35.6424 141.389 34.6109C140.358 33.5795 138.959 33 137.5 33H66C57.2479 33 48.8542 36.4768 42.6655 42.6655C36.4768 48.8542 33 57.2479 33 66V154C33 162.752 36.4768 171.146 42.6655 177.335C48.8542 183.523 57.2479 187 66 187H137.5ZM150.106 67.606C150.617 67.0938 151.224 66.6874 151.892 66.4102C152.56 66.1329 153.277 65.9902 154 65.9902C154.723 65.9902 155.44 66.1329 156.108 66.4102C156.776 66.6874 157.383 67.0938 157.894 67.606L196.394 106.106C196.906 106.617 197.313 107.224 197.59 107.892C197.867 108.56 198.01 109.277 198.01 110C198.01 110.723 197.867 111.44 197.59 112.108C197.313 112.776 196.906 113.383 196.394 113.894L157.894 152.394C157.383 152.905 156.776 153.311 156.107 153.588C155.439 153.865 154.723 154.007 154 154.007C153.277 154.007 152.561 153.865 151.893 153.588C151.224 153.311 150.617 152.905 150.106 152.394C149.595 151.883 149.189 151.276 148.912 150.607C148.635 149.939 148.493 149.223 148.493 148.5C148.493 147.777 148.635 147.061 148.912 146.393C149.189 145.724 149.595 145.117 150.106 144.606L179.223 115.5H82.5C81.0413 115.5 79.6424 114.921 78.6109 113.889C77.5795 112.858 77 111.459 77 110C77 108.541 77.5795 107.142 78.6109 106.111C79.6424 105.079 81.0413 104.5 82.5 104.5H179.223L150.106 75.394C149.594 74.8831 149.187 74.2762 148.91 73.608C148.633 72.9398 148.49 72.2234 148.49 71.5C148.49 70.7766 148.633 70.0602 148.91 69.392C149.187 68.7238 149.594 68.1169 150.106 67.606Z" fill="black"/>
</svg>
