<svg width="233" height="234" viewBox="0 0 233 234" fill="none" xmlns="http://www.w3.org/2000/svg">
<circle cx="116.291" cy="117.275" r="116.291" fill="#E3E4E4"/>
<path d="M176.153 93.3025C179.383 98.3139 180.789 104.285 180.134 110.211L184.605 96.3344C188.334 103.173 188.28 109.198 185.174 121.471L188.863 115.557C189.275 118.33 189.089 121.158 188.318 123.853C187.547 126.548 186.208 129.047 184.392 131.182L189.382 126.508C184.897 160.677 157.911 171.365 121.599 171.365M112.095 171.109C81.5193 169.403 62.7732 159.06 47.3576 138.302L56.3788 140.843C50.3362 137.246 41.4501 127.141 44.1479 117.881L56.297 127.962C50.9902 119.769 44.5069 110.552 46.0424 99.242L56.361 107.055C57.5253 101.312 59.9003 95.8834 63.3277 91.1307" stroke="black" stroke-linecap="round" stroke-linejoin="round"/>
<path d="M151.737 130.98L156.93 137.2L159.788 130.237L151.737 130.98ZM156.749 144.515C158.811 147.952 159.834 148.243 164.078 147.646C162.058 148.93 160.181 150.426 158.48 152.111C155.658 155.498 155.757 161.111 152.242 163.769C151.324 164.399 150.197 164.645 149.1 164.455C148.553 164.384 148.026 164.201 147.554 163.915C147.081 163.63 146.673 163.25 146.356 162.799C144.412 159.575 146.274 155.242 145.716 151.517C145.396 149.363 144.156 145.165 144.156 145.165C148.993 148.521 153.394 148.215 156.749 144.515Z" stroke="black" stroke-linecap="round" stroke-linejoin="round"/>
<path d="M127.002 126.821C128.773 126.821 130.208 124.668 130.208 122.012C130.208 119.356 128.773 117.203 127.002 117.203C125.231 117.203 123.796 119.356 123.796 122.012C123.796 124.668 125.231 126.821 127.002 126.821Z" stroke="black" stroke-linecap="round" stroke-linejoin="round"/>
<path d="M167.252 126.86C168.67 126.86 169.819 124.995 169.819 122.694C169.819 120.394 168.67 118.528 167.252 118.528C165.835 118.528 164.686 120.394 164.686 122.694C164.686 124.995 165.835 126.86 167.252 126.86Z" stroke="black" stroke-linecap="round" stroke-linejoin="round"/>
<path d="M66.1428 69.1074C66.1181 61.3738 68.4516 53.8165 72.8322 47.4431C79.4346 48.9272 85.712 51.5998 91.358 55.3304M101.961 64.9132C104.039 67.4151 105.899 70.0908 107.52 72.9107M146.342 74.8976C147.301 71.0287 148.733 67.2923 150.603 63.7722M156.511 55.4122C158.839 52.7741 161.456 50.4061 164.313 48.3531C166.887 50.8227 168.966 53.7601 170.441 57.0081M104.104 67.4866C124.841 63.3101 133.048 64.6146 146.811 70.6998" stroke="black" stroke-linecap="round" stroke-linejoin="round"/>
<path d="M68.9579 80.6985L81.7823 61.4654C90.3912 48.5522 149.48 44.5285 167.96 63.0045L183.987 79.0351L177.574 85.4437L161.548 69.4167C148.631 56.4999 99.8673 58.3802 91.4006 71.0802L78.5762 90.3133L68.9579 80.6985Z" stroke="black" stroke-linecap="round" stroke-linejoin="round"/>
<path d="M94.5961 68.1691C97.8155 71.5016 99.8384 75.808 100.348 80.4135C100.857 85.019 99.8245 89.6634 97.4112 93.6189C95.1288 97.4994 91.5266 100.429 87.2625 101.874C82.9985 103.318 78.3572 103.18 74.1865 101.485C69.9713 99.6419 66.5035 96.4273 64.3468 92.3637C62.1901 88.3001 61.4714 83.6264 62.3075 79.1026C62.9908 74.605 65.2212 70.4866 68.6144 67.4567C72.0077 64.4267 76.3514 62.6751 80.8973 62.5033M164.483 59.738C170.69 55.3802 178.474 57.3885 182.842 64.4689C184.977 68.0886 186.034 72.2424 185.889 76.4422C185.744 80.6419 184.404 84.713 182.025 88.1771C181.076 89.6955 179.808 90.9888 178.308 91.9669C176.808 92.945 175.114 93.5845 173.342 93.8406C171.57 94.0967 169.763 93.9635 168.048 93.45C166.333 92.9366 164.75 92.0554 163.41 90.8678C160.431 87.9618 158.37 84.2467 157.479 80.1816C156.589 76.1165 156.91 71.8797 158.402 67.9949" stroke="black" stroke-linecap="round" stroke-linejoin="round"/>
<path d="M71.8744 100.856L70.5466 108.344L76.0184 110.015L80.105 103.149M73.2136 109.58C72.8872 112.042 72.8743 114.535 73.1753 117C74.1664 121.033 79.0833 123.896 79.003 128.041C78.8155 137.593 65.5034 143.465 64.5774 152.973C63.2381 166.783 79.7759 176.762 78.1765 192.404" stroke="black" stroke-linecap="round" stroke-linejoin="round"/>
<path d="M124.418 144.284C137.696 144.284 148.46 133.52 148.46 120.242C148.46 106.963 137.696 96.1993 124.418 96.1993C111.14 96.1993 100.376 106.963 100.376 120.242C100.376 133.52 111.14 144.284 124.418 144.284Z" stroke="black" stroke-linecap="round" stroke-linejoin="round"/>
<path d="M121.408 144.55L120.6 152.543M78.0242 192.401L80.9637 189.029C81.7294 188.258 82.7315 187.771 83.8064 187.649C84.8814 187.527 85.9656 187.776 86.882 188.357C87.4962 188.804 87.9488 189.441 88.171 190.172C88.3932 190.903 88.3727 191.687 88.1126 192.404L86.3469 194.485L83.8064 196.566L80.6251 197.606L78.5445 196.566L77.5042 194.485L78.0243 192.404M119.08 162.3L117.422 170.875M112.613 178.444L103.324 182.94M95.8652 184.222L85.4788 189.92M121.329 149.836C120.074 149.737 118.826 150.097 117.812 150.849C116.798 151.602 116.085 152.697 115.803 153.935L115.274 159.938C115.171 160.938 115.391 161.946 115.901 162.81C116.411 163.674 117.183 164.349 118.104 164.734C119.439 164.847 120.771 164.481 121.865 163.699C122.959 162.917 123.743 161.77 124.081 160.46L124.81 155.455C124.934 154.26 124.659 153.059 124.028 152.04C123.397 151.022 122.447 150.246 121.329 149.836ZM113.291 170.95L110.496 175.394C110.019 176.129 109.79 176.999 109.843 177.876C109.896 178.754 110.228 179.59 110.79 180.261C111.782 180.885 112.959 181.137 114.117 180.973C115.274 180.809 116.337 180.239 117.12 179.362L119.675 175.778C120.25 174.895 120.513 173.842 120.421 172.79C120.329 171.738 119.888 170.748 119.17 169.981C118.236 169.409 117.131 169.193 116.053 169.37C114.975 169.548 113.996 170.108 113.291 170.95ZM101.109 179.323L95.9749 180.233C94.3876 180.51 92.518 182.101 92.6042 183.723C92.8141 184.884 93.422 185.933 94.3213 186.687C95.2207 187.441 96.3541 187.851 97.523 187.846L101.874 187.34C102.906 187.174 103.853 186.662 104.562 185.886C105.27 185.11 105.698 184.115 105.777 183.062C105.568 181.98 104.983 181.008 104.127 180.323C103.271 179.637 102.201 179.283 101.109 179.323Z" stroke="black" stroke-linecap="round" stroke-linejoin="round"/>
</svg>
