<svg width="17" height="19" viewBox="0 0 17 19" fill="none" xmlns="http://www.w3.org/2000/svg">
<path d="M14.5461 8.14576H13.6733V5.52748C13.6733 2.48009 11.1932 0 8.14582 0C5.09843 0 2.61834 2.48009 2.61834 5.52748V8.14576H1.74558C0.781908 8.14576 6.10352e-05 8.9276 6.10352e-05 9.89128V16.8734C6.10352e-05 17.837 0.781908 18.6189 1.74558 18.6189H14.5461C15.5097 18.6189 16.2916 17.837 16.2916 16.8734V9.89128C16.2916 8.9276 15.5097 8.14576 14.5461 8.14576ZM10.7641 8.14576H5.52754V5.52748C5.52754 4.08379 6.70213 2.9092 8.14582 2.9092C9.58951 2.9092 10.7641 4.08379 10.7641 5.52748V8.14576Z" fill="black"/>
</svg>
