<svg width="723" height="541" viewBox="0 0 723 541" fill="none" xmlns="http://www.w3.org/2000/svg">
<path d="M543.5 518L5 541L-5.5169e-07 407.5L39.3333 406.968L39.3333 116.973L52.3262 100.727L52.3262 56.8619L79.9362 56.8619L82.3723 1.11519e-07L84.8085 56.8619L112.418 56.8619L112.418 100.727L166 163L166 362.291L219.61 362.291L219.61 242.069L293.507 198.204L293.507 340.359L318.681 340.359L318.681 269.592L376.5 269.592L376.5 115.348L392.578 115.348L444.55 63.3604L496.521 115.348L507.078 115.348L507.078 441.898L572.043 441.898L572.043 253.441L620.766 253.441L620.766 237.195L637.007 237.195L637.007 224.198L675.986 224.198L675.986 237.195L688.979 237.195L688.979 256.691L719.837 285.934L723 286L719.5 294L717.5 298L715.5 302.5L712.5 309L710 314L708 318.5L705.5 323.5L704 327L702.5 330L701 333.5L699.5 337L697 342L695 347L693 352L688 363L682 376.5L676 391.5L543.5 518Z" fill="#D2DDA5"/>
</svg>
