<svg width="758" height="271" viewBox="0 0 758 271" fill="none" xmlns="http://www.w3.org/2000/svg">
<path d="M0 0L721 67L723.5 71L726 75L727 76.5L728.5 79L729 80L730.5 82.5L732 85L734 88.5L735 90.5L736.5 93L737.5 95L738.5 97L740 100L741.5 103L743 106L745.5 112L747.5 116.5L749.5 122L751 126L752.5 131L754 137L755 141L756.5 151L757 157L757.5 163.5V164.964C757.5 167.319 757.333 169.67 757 172L756.5 176L755.5 183L754.5 188L753.5 192L752 197L751 200L750 203L748.5 207L746 212.5L744 217L743 219L742 221L741.5 222L741 223L740.5 224L739 226.5L737.5 229L735.5 232L733 235L730 238L727 241L724 244L720 247.5L716.5 250L713 252L709 254.5L704 257L697.5 260.5L693 262.5L690 263.5L686 265L682 266.5L678.5 268L668.5 271H656.5H651H644.5H30.5H30C13.4315 271 0 257.569 0 241V239V0Z" fill="#D1D3D4"/>
</svg>
